<?xml version="1.0" encoding="utf-8"?>
<!-- Generator: Adobe Illustrator 13.0.2, SVG Export Plug-In . SVG Version: 6.00 Build 14948)  -->
<!DOCTYPE svg PUBLIC "-//W3C//DTD SVG 1.1//EN" "http://www.w3.org/Graphics/SVG/1.1/DTD/svg11.dtd">
<svg version="1.1" id="Layer_1" xmlns="http://www.w3.org/2000/svg" xmlns:xlink="http://www.w3.org/1999/xlink" x="0px" y="0px"
	 width="424.285px" height="399.377px" viewBox="0 0 424.285 399.377" enable-background="new 0 0 424.285 399.377"
	 xml:space="preserve">
<path d="M259.186,0.981c0-0.8,2.2-0.2,2.9,0c0.4,0.4,1.1,0.2,1.7,0.2c0.7,1.1,2.5,1,3.6,1v-0.5c5.5,4.5,12.1,8.9,15.8,16.3
	c0.2,1.8,1.2,3.2,2.2,4.6c1.9-2.2,5.2-3.4,7.9-4.8l-0.2-0.2c6.5-4,16.1-3.7,23.7-1.2c12.5,6.9,18.4,20,27.1,30.2
	c1.5-1.2,4.2-0.9,5.8-0.2c5.1,3.1,8.1,8.7,7.4,15.1c0.3,3.2-2.4,5.4-1.4,8.6c4.4,9.9,6.8,20.6,5,32.2l0.8,0.5l28.3-0.3l0.7,0.7
	c-0.6,21.5-0.8,43.7-0.7,64.8c1.1,16.2-0.3,33.1,1.2,49.5c9.6,2.4,20.7,6.2,25.2,16.5c2.6,2.4,8,1.7,8.1,6.5
	c-1.2,0.3-0.4,2.2-1.9,2.4c-2.6,1.2-6.2-3.3-7.4,1l-0.3,1.6c2.6,2.1,7,2,8,5.3c-2.6,2.4-4.4,5.7-6.8,8.2c-1.7-0.1-2.9-2.2-4.5-3.1
	c-3-2.7-6.1,1.7-10.1,0.2c-4.1-0.8-8.5-2.3-12.2-4.6c-0.6,10.4,0.5,17.1-1.2,27.4c2.3,26.4-3.6,52.7-0.5,78c0.6,1.5-1.2,1.2-1.7,1.9
	c-20.8,1-43.9-0.9-63.6-0.2c-0.9,1.7-2.7,0.6-3.8,0.2c-9.9,9.8-21.6,15.6-34.6,18.7l-1.4-0.7c-3,8.1-5.5,19.9-15.4,21.6
	c-1.5-0.3-3.2,0.2-4.6-0.9c-3.7-4.2-6.4-9.4-5.5-15.4c-1.7-1.8-4,0.4-6-0.5c-10-1.4-19.1-5.9-25.4-13.7c-3.6-1.9-5-5.6-8.2-7.6
	c-7.3-0.1-15.7-0.1-22.3,0.9c-1.7,7.7-6.4,14.4-10.8,21.1c-3.1,3.9-8.1,6.4-12.9,7.7c-0.4,3.9-5.7,1.9-6,5.8c-2,2.7-5.9,0.6-8,3.1
	c-2.1,1.3-4.4-0.2-5.7-1.7c-2.8,1.4-4.3-2.5-7-1.4c-1.1,0.6-2.2-0.4-3.3-1c-1.5-4-7.3-1.4-9.2-6c-1.9,0-4.1-0.5-4.8-2.6
	c-1.6-2.3-6-2.7-7.2-6c-2.5,0.2-4.8-1.9-5.7-4.1c-1.2-3.3-6.4-2.1-7.7-6c-0.2-2.7-2.6-1-3.8-2.6c-1.5-1.6-1.2-5.3-4.4-4.6
	c-1.7-4.1-6.2-2.1-9.6-2.6c-15.3,0.3-28.3,0.3-43.6,0c-0.6-0.5-0.9-1-0.8-1.7c2-0.6,1.4-3.5,1.5-5.5c-1.4-13.9-0.5-26.3,0-40.8
	c-2-1.5-2.3-3.8-2.4-6c2.6-3-0.3-7.4,1.7-10.6l-1-1.4c0.1-16.4-3.3-31.2-1.7-46.4c-1.6-3.1,2.6-8.4-2.6-8.6c-1.9-5-9-0.9-9.9-6.2
	c-8.2,2.8-16.4,5.7-24.7,8.6c-1.5-0.7-3.9,1.5-5-1c-0.7-1.8,0-4.4,0.9-6.2c0.9-1.7,2.6-0.8,3.6-0.7c7.7-3.1,15.9-4.7,23.3-8.4
	c-0.3-2.3,1.3-3.8,2.4-5.5c2.5-0.9,1.3-4.5,1.9-6.8c1.9-2.8,5-3.3,7.7-4.5c0.3-12.1-0.4-25.1-1.2-37.9c-3.6,0.1-2.5-4.3-4.1-6.3
	h-4.5c-1.6-1.7-0.7-4.6-2.7-6l-5-0.2c-2.2-1.7-1.1-7.8-5.8-4.8c-2.4-1.1-2.5-3.4-2.4-5.5c-1.7-1.2-4.6-0.2-6-1.9l0.5-2.4
	c8.7-11.4,15.5-23.4,23.8-35.1l6.5-11.7l1.2-0.5c4.7,4.7,10.6,1.2,16.8,1.9c38.1-0.1,80.9-0.8,118.3-1.2c1.2-1.3,3-1.4,4.3-0.2
	c3.9,0,7.7-0.2,11.8,0.2l0.4-0.5c-5.8-5.1-2.9-13.4-3.3-20.1l2.6-14.9c-3.2-1.6-4.7-5.9-7.9-7.5c-5.7-8.2-12.9-13.3-17.5-22
	c-1.2,0.6-2.1-0.9-2.2-2c-1.4-5.6-0.8-12.1-5-16.5c-0.1-1.1-0.1-3.1,0.9-3.9l-0.2-0.2c4.7,4.4,11.4,7.6,17.3,11c1.8,2.2,3,5,4.5,7.5
	c4.3,5.3,7.5,10.1,11.6,15.3c0.3-3.5,0.2-5.4,0.9-8.8c3.7-8.6,12.6-16.4,18-22.1c2.2-1.4,4.7-3.8,7.5-3.9c4-2.6,8.9-2.4,11.9-5.7
	h1.5v0.2c1.2,0.1,3.4-0.1,4.1-1.2c2.3,0.9,2.7-2.3,4.3-0.5C247.085-0.919,252.485,0.281,259.186,0.981z"/>
<path fill="#FFFFFF" d="M273.585,9.881c10.8,9,12.8,22.5,19,33.8c5.9,10.9,7.5,23.7,13.4,34.6c0.6,0.1,1.2-0.2,1.2-0.7
	c-2.6-8.2-5.7-16.8-8.6-25.2c10.4,11.8,22.3,25.5,21.3,42.9c-3-1.5-5.7-4-8.8-5.3c-3.5-2.3-7.9-2.1-11.3-4.5
	c-12.1-10-10.6-26.5-18-38.9c-3.3-8.9-9.2-17.1-15.4-24.7c-6.7-7.1-17.4-6.3-26.9-5.5c-14.3,3.2-28.5,12.6-35.7,25.9
	c-0.7,1-2.5,2-3.4,3.1c-1.1,1.3-1.5,2.2-2.8,3.4c0.5-2-1.7-3.7-2.4-5.6c-0.5-11.3,8.5-19.9,16.8-27.3c15.1-10.5,35.3-17.1,53.5-11.5
	C268.485,5.981,271.186,7.681,273.585,9.881z"/>
<path fill="#FFFFFF" d="M335.485,38.381c6.3,8.2,11.5,16.7,15.6,25.7c-0.6,15.6-9.6,28.5-20.8,38.9l-2.7,1.4c-3-1.9-1-6.3-2.6-9.1
	c-2.8-20.3-16.8-34.9-27.9-51.6c-3.5-5.4-6.2-11.2-9.8-16.5l-1.4-3.9c1.4,0,2.7-1.7,4.3-2.1c7.5-3.9,17.7-7,26.1-2.9
	C324.385,22.781,329.385,31.381,335.485,38.381z"/>
<path fill="#FFFFFF" d="M176.186,23.081c1.3,3.3-3,1.1-2.9,3.8c-2.6,2.6-5.7-2.3-7.7,0.7l-0.9-5.5c2.6-0.6,5.3-4.9,7.9-1.7
	C173.686,21.581,174.485,23.481,176.186,23.081z"/>
<path fill="#FFFFFF" d="M239.285,22.581c-9.4,3.6-18.7,8.7-27.1,15.1c0,2.2-2.5,2.6-4.1,3.1c2.9-7.6,12-12.7,19.2-16
	C230.785,21.981,234.985,22.581,239.285,22.581z"/>
<path fill="#FFFFFF" d="M251.085,24.981c-13.1,0.2-22.8,10.2-34.8,13.7h-1c9.5-6.4,19.4-14,30.5-15.6
	C247.686,23.381,249.885,24.181,251.085,24.981z"/>
<path fill="#FFFFFF" d="M254.686,27.181c-5.3,0.9-12.8,1.9-17.3,3.6c5-2.9,11.4-4,17-4.1
	C254.585,26.781,254.686,26.881,254.686,27.181z"/>
<path fill="#FFFFFF" d="M195.585,50.881l-1.6,2.9c-3.5-1.6-4.5-6-7.7-8.6c-2.8-5.7-8.6-9.9-11.5-15.6c0.2-1.8,2.2-1.6,3.1-2.9
	C183.985,34.181,189.485,42.881,195.585,50.881z"/>
<path fill="#FFFFFF" d="M257.985,29.281c-7.7,0.5-16.4,2.7-23.5,4.6c6.2-2,15-4.5,21.8-5.5
	C256.885,28.681,257.585,28.581,257.985,29.281z"/>
<path fill="#FFFFFF" d="M173.085,29.581c3.2,4.4,5,9.1,9.3,12.7c2.3,3.9,5,8.1,8,11.3c1,0.6,2,1.6,2.1,3.1c-0.2,0.7-0.5,1.4-0.7,2.1
	c-5.2-5-10.2-10.2-14.9-16c-3.4-3.6-7.3-7.6-9.6-12.3C168.686,27.281,171.285,31.681,173.085,29.581z"/>
<path fill="#FFFFFF" d="M264.485,35.781c-5.6,1.1-11.4,1.6-17,2.6c-0.6,1.1-1.1,0.4-2,0.5l-0.2-0.2c5.5-1.9,13.6-3.3,19.2-3.4
	V35.781z"/>
<path fill="#FFFFFF" d="M250.785,35.281c-0.4,0.4-1.1,0.2-1.7,0.3C249.785,35.581,250.186,35.081,250.785,35.281z"/>
<path fill="#FFFFFF" d="M229.885,35.981c-0.6,0.1-1,1.3-1.6,0.5C228.585,35.681,229.785,35.981,229.885,35.981z"/>
<polygon fill="#FFFFFF" points="245.285,36.481 246.985,35.781 247.686,35.781 "/>
<path fill="#FFFFFF" d="M269.785,48.281l3.6,2.9c-8-1.8-15.6,3-20.9,8.8c-0.8,2.5-3.4,4.5-2.4,7.5c1.6,0.8,2.1,3.6,4.3,3.3
	c5.2-7.8,12.9-12.7,21.1-16.3c0.3-1.3-0.8-2-1.6-2.9c3.2,0,5.9,3.6,9.3,4.4c4.4,13,7.1,28.9,21.6,35c-3.2,8.9-8.7,17.5-15.8,24.2
	c-4.8,5.7-12.3,7.7-19.7,5.3c-8.1-2.2-14.8-9.4-17.5-17c-0.1-6.7-4.1-11.7-6.7-17.3c-1.4-0.3-2.1-2.4-3.9-1.7
	c4.2-2.3,6.6-9,6.5-14.4c-0.5-4.1-1.6-8-3.6-11.5c-4.1-2.8-8.6-5.4-13.4-3.6c-3.4,2.3-7.3,4.1-9.1,8.2c-2.9,6.8-3.3,14.2,2.1,19.6
	c1.5,1.1,2.7,2.6,4.3,3.2c-7.8,1.7-17.9,5-19.9,13.9c-5.6-0.7-12.4-2.6-15.1-8.4c-4.2-12.3,0.1-25.8,3.8-37.2
	c2.6-6.8,9.4-9.4,15.6-10.1C229.885,41.081,250.985,43.181,269.785,48.281z"/>
<path d="M227.785,46.581v0.5c-7.3,3.3-13.3,9.6-18.2,16.1c1.5,1.4,1.5,4.2,3.8,4.8c3.8-7.3,9.7-13.1,15.6-19.5
	c0.5,0,0.9,0.1,1.2,0.5c-10.6,11.3-18.9,23.7-22.8,38.2l-1.7,7.6c-0.3,0-0.6,0-0.7,0.3c-2.1-2.4-0.2-5.6,0.2-8.2l3.9-10.3
	c-0.8-2.7-2.8-4.9-4.1-7.4c-0.4,0.7-1.4,0.5-1.9,0.2c-0.2-2.8-5.8-5.9-1.7-7.9c0.4-0.7,1.2-1.8,0.2-2.4c-1.4-0.5-1.8-1.8-1.9-3.1
	c0.3-0.5,1-0.2,1.5-0.3l1.6,1.9c4.4-5.9,10.2-9.9,16.6-12.4C222.186,46.281,225.985,43.081,227.785,46.581z"/>
<path fill="#FFFFFF" d="M221.785,47.781c-7.1,5.3-12.3,12.2-17.8,18.2c-2.2-2.9,0.9-6.4,2.2-9.3c4.1-3.4,7.1-8.2,12.5-8.2
	C219.785,48.481,220.485,47.381,221.785,47.781z"/>
<path fill="#FFFFFF" d="M353.485,53.781c1.3,3.1,2.3,7.6,0.5,10.8c-2.7-5-5.1-10.3-8.1-14.9c0.7-0.8,1.7-0.5,2.8-0.2L353.485,53.781
	z"/>
<path fill="#FFFFFF" d="M271.885,53.581c-6.3,3.3-13.2,8-18.2,13.6c-0.5,0.1-0.9,0-1.2-0.4c0.9-7.4,7.8-11.2,13.9-13.5
	C268.285,53.481,270.186,53.081,271.885,53.581z"/>
<path fill="#FFFFFF" d="M242.186,61.481c1.2,4.2,2.7,8.6,1.4,12.7c-1.1-2.3-2.8-5.1-6-5c-2.7,0.1-5.3,1.3-6.9,3.6
	c-0.9,3.6-0.4,6.1,0.4,9.6l3.6,1.4c-2.9,0.1-6.2,0.2-8.8-1.9c-2.4-2.1-4.2-5.2-4.1-8.7c0.5-6,2.5-13,8.4-14.8
	C234.585,57.581,239.585,57.181,242.186,61.481z"/>
<path d="M281.785,66.281c3.9,5.1,6.8,13.6,3.1,20.1c-2,5-2.2,11.1-8.6,12.5v0.3c3.1,0.6,5.1-0.9,7.6-2.4c0.9,1.3-1.5,2.3-1.4,2.6
	c-4.3,2.5-10.1,1.5-14.4,0.5c-4.7-3-8-6.7-8.9-12.3c-0.8-9.1,0.2-19.2,8.7-24.4C272.585,60.981,278.186,62.581,281.785,66.281z"/>
<path fill="#FFFFFF" d="M280.785,70.081c3.4,5.5,2.9,12.9,0.5,18.7c-0.7-3.3-2-7.8-5.5-9.3c-2.9-0.3-5.8-0.9-7.7,1.4
	c-2.7,3.2-4.3,7.5-3.6,12l0.7,1.7c-5.6-3.6-4.3-12.5-3.8-18c1.2-5.4,3.7-10.2,9.1-12.5
	C274.785,64.181,278.985,66.181,280.785,70.081z"/>
<path d="M201.186,71.981c1.9,2,4.6,4.6,6,7c-0.6,0.8-1.5-0.2-2.2-0.2c-3.9-4-7.8-8.4-10.6-13c0-0.8,1.1-0.5,1.5-0.2L201.186,71.981z
	"/>
<path fill="#FFFFFF" d="M211.686,70.781l-1.7,3.2c-1.4-1.5-2.9-4.5-4.8-4.8l2.4-3.9C208.186,67.781,210.186,69.581,211.686,70.781z"
	/>
<path fill="#FFFFFF" d="M358.785,101.081c-2.8,14.5-13.2,30.8-27.8,34.8l1.4-1c3.2-9.4-0.4-20.2-3.3-28.3c4.4-4.9,8.8-9,13.2-13.4
	c4.1-8.2,10.4-15.8,10.3-25.5C356.485,77.881,361.085,88.781,358.785,101.081z"/>
<path fill="#FFFFFF" d="M239.485,72.481c1.5,3.3-2.4,1.4-3.3,2.9c-1.3,0.6-1.6,2-3.1,2.2c0.3-2.5,1.8-5.1,4.3-6
	C238.285,71.281,238.985,71.781,239.485,72.481z"/>
<path fill="#FFFFFF" d="M275.785,84.281c-2.6,0.3-5.6,1.8-7.5,4.3l-0.9-0.2c-0.2-2,1.1-3.9,2.4-5.6c1.8-0.5,3.8-3.1,5-0.4
	C275.385,82.881,276.085,83.381,275.785,84.281z"/>
<path fill="#FFFFFF" d="M248.885,99.581c0.2,1.5,0.7,2.9,0.5,4.6c-7,5.8-16.4,5.9-25.4,4.6c-3.9-2.6-9.9-3.3-11.1-8.7
	c0-1.7,0.5-3,1-4.5c7.1-6.6,16.6-8.1,25.9-8.9C246.686,87.081,245.985,95.181,248.885,99.581z"/>
<path fill="#FFFFFF" d="M320.186,110.381c2.3,4.4,2.6,10.3,1.7,15.4c-1.7-1.3-1.6-3.8-2.9-5.5c-3.7-7.4-7.6-14.3-13.7-20.4
	c0.9-2.6,2.1-5.3,2.6-7.7C313.985,95.981,318.686,103.281,320.186,110.381z"/>
<path fill="#FFFFFF" d="M191.585,98.881c3.6-2,4.5,3.7,8.1,3.1l-0.2,1.7c-5.6-0.1-11.9-2.6-17.3-2.9c-0.6-0.7-0.2-1.8-1-2.4
	c2.3-0.7,4.8,0.6,7.7-0.2L191.585,98.881z"/>
<path fill="#FFFFFF" d="M177.585,98.381c0,2.5-0.9,6.1-0.2,9.2c-0.8-1-0.2-2.2-1.7-2.7
	C175.186,102.581,175.385,99.481,177.585,98.381z"/>
<path fill="#FFFFFF" d="M41.985,99.181c16.5,9.4,31.1,20.6,46.6,31.9c0,0.7,0.8,1.4,1.4,1.7c-2.7,6-4.7,12.3-6,18.9
	c1.2,8-0.4,18.8,8,22.1c3.4-1.3,8.3,2,9.8-2.9c-0.2-0.7,0.2-1.1,0.5-1.7c0.9,1.3,0.6,5.4,3.6,3.6l0.2-0.2c-0.2,0.5,0.4,0.9,0.7,0.9
	c2.7,0.1,3.9-0.7,7-0.4c0.7,5.5-0.5,10.9,0.5,16.3c-8,1-15.9,7.3-17.8,15.6l-0.7,7.4c-0.5,0.5-1.3,0.2-1.9,0.3
	c-1.5-1.8-0.5-4.8-2.2-6.3c-6,4.6-2.8-8.8-9.3-3.3c-4-0.2-1.1-6.1-4.4-6.8l-4.5-0.2c-0.7-2-0.4-4.7-2.2-6c-5.5,4-3.7-7.6-10.1-4.1
	c-1.8-0.6-1.2-3.6-2.4-5.3c0-2.1-3-1-4.3-0.9c-1.9-1.5,0.2-4.7-2.9-4.8c-1.6-0.3-2.9,0.5-4.5,0.2c-0.9-2.1-2.1-4.1-2.7-6.5
	c-1.7-2.1-3.3,0.1-5.5-0.9c-1.6-1.8-0.9-4.5-3.1-6h-4.1c-1.1-1.9-0.6-5.1-3.1-5.8c-2.8,0.2-5.7,0.1-6-3.1c0.2-1.2-0.8-2.1-1.7-2.6
	c-1.2,0.2-2.9,0.5-3.8,0c-0.7-1.4,1.5-3.7-1-4.6c-1.3,0.1-2.9-0.8-4.3-1.2c5.7-9.4,13-18.1,18-27.8c4.3-5.6,7-11.9,10.6-17.8
	L41.985,99.181z"/>
<path fill="#FFFFFF" d="M173.985,99.381c-0.5,1.7-0.9,4-0.9,5.3c-19.6-0.6-35.9,1-54.3,0.5c-18.7,0.8-39.2,1.3-58.5,1.4l-1.2,0.5
	c-3.1-2.1-6.7-3.7-9.1-6.3c23.8-1.8,53.9-0.1,78-1.6c10.4,0.1,23.3,0.7,34.5,0c0.9,0.6,1.5,0.2,2.4,0
	C167.985,99.881,171.585,98.581,173.985,99.381z"/>
<path fill="#FFFFFF" d="M194.885,105.581c5.4,0.4,11.1,2.2,16.6,2.2l1.2,1.7c-10,0.5-21.6-2.6-31.9-3.9c-0.2-1.1,0.1-2,0.7-2.8
	C185.885,103.781,190.885,103.581,194.885,105.581z"/>
<path fill="#FFFFFF" d="M209.285,104.881l0.3,0.3c-2.3,0.1-3.9-0.4-6.3-0.5C205.085,104.181,208.385,103.481,209.285,104.881z"/>
<path fill="#FFFFFF" d="M388.285,105.381c-1.4,35,0.1,75.7,0.3,113c-1.1,0.3-2,1-3.4,0.7c-1.2-1.9-2.3-3.9-3.8-5.7
	c-0.9-5.8-0.1-14.5-1.7-20.7c1.1-9.5-0.3-20.4,1.2-29.5c-1.6-8.1,0-16.8-0.5-25.4c1.1-8.1,1.3-17.2-0.2-25.4l-1.2-0.8
	c-7.1,1.3-13.8,0.8-20.4-0.4l1.9-6.8c8.6-0.3,17.4-0.3,25.4,0L388.285,105.381z"/>
<path fill="#FFFFFF" d="M250.285,106.581c3.2,8.7,12.3,14.7,20.4,16.8c-11.6,7.4-25.5,4.4-38.1,1.7c-5.3-2.2-9.9-5.7-12.7-11.1
	c9.7,2.7,20.5,0,27.8-6C249.186,108.881,248.985,106.581,250.285,106.581z"/>
<path fill="#FFFFFF" d="M127.186,107.281c-2.6,0.8-5.6,0.5-7.9,0.3C121.785,107.081,125.585,107.381,127.186,107.281z"/>
<path fill="#FFFFFF" d="M146.885,107.081c-5.5,4.8-8.9,11.7-8.4,19.2c-0.5,5.9,3.2,10.2,7,14.1l6,3.2c-3.1,0.9-7-1.4-9.9-3.4
	c-0.7,0.7,0.3,1.3,0.5,1.9c0.5,0.6,1.2,0.8,1.7,1.5c-2.2-0.6-4.7-4-7.2-5.6c-0.6,2.2,2.3,3.1,3.1,4.8c-7-2.1-8.4-11.2-8.9-18
	c1.2-4.7,2-10.1,6.8-12.9C139.585,108.581,143.585,107.481,146.885,107.081z"/>
<path fill="#FFFFFF" d="M158.186,107.981c8.2,7.5,7.7,18.5,5,28.6c-2.3,2.8-5.5,6.4-9.6,5.3c-4.7-2.4-9.6-3.9-12-9.6
	c-1.8-7.5-0.9-17.7,6-23.1c2.4-0.8,5-3.6,7.5-1.2H158.186z"/>
<path fill="#FFFFFF" d="M161.585,107.081c-0.3,0.5-0.9,0.5-1.2,0H161.585z"/>
<path fill="#FFFFFF" d="M162.485,107.081h3.6H162.485z"/>
<path fill="#FFFFFF" d="M309.085,117.881c-1.9,3.2-5.8,5.5-3.8,9.8c3.6,2.7,7.9,0.9,12.5,1.9c3.2,0.5,6.3,1.5,7.7,4.8
	c2.1,8.2-4.7,13.8-10.4,19c-5.8,3.2-14.7,4.9-20.4,0.7c-2.3-0.6-2.8,2.7-4.8,2.4c-6.3,5.2-9.2,13-17,15.6v0.5
	c-10.1,1.3-19.7,4-29.5,6c-1.1,1.4-3.7,1-3.9,3.1c-2.3-2.7-7.3-2.4-7.6-6.5c-3.6-3.4-8-7.5-12-10.3c-8.8-8.8-13.1-19.8-16.8-30.9
	c6-3.8,12.8-5.9,18.9-9.4c0.9-1.4,2.1-1.9,3.6-1c7.2,6,16.7,4.8,25.2,6.8c7,0.6,12.2-0.9,18.3-2.4c1.6,1.5,0.7,4.6,1.6,6.7l2.2,16.5
	c-1.8,1-1.8,3.1-1.7,4.6c1.7,3.1,6.4,2.2,9.4,1.7c1.8-1.1,4.3-1.8,5.3-3.9c0.3-1.7-1-2.8-1.2-4.3c-2-0.3-3.3-1-3.4-2.9
	c0.2-2.9-1.1-5.9-1.7-8.8l-2.1-10.4c3.9-3.3,10.2-1.3,14.1-3.6c-0.9-2.8-5.2-0.6-6.9-0.9c6.9-3.2,14.1-8.4,18.7-14.9
	C306.385,110.481,309.485,113.881,309.085,117.881z"/>
<path fill="#FFFFFF" d="M64.585,107.981c3.2,0.3,7.5,1,10.6,0.8c-3.5,0-10,0.1-14-0.3C62.485,107.981,63.585,108.581,64.585,107.981
	z"/>
<polygon fill="#FFFFFF" points="78.285,108.481 80.885,108.281 83.785,108.481 "/>
<path fill="#FFFFFF" d="M84.985,108.481h1H84.985z"/>
<polygon fill="#FFFFFF" points="169.485,108.981 169.985,108.781 170.186,108.981 "/>
<path fill="#FFFFFF" d="M173.585,108.781c-0.7-0.3-1.5,0.5-2.4,0.2C171.585,108.781,172.686,108.681,173.585,108.781z"/>
<path fill="#FFFFFF" d="M136.385,109.481c-3.1,0.8-5,0.9-8.4,0.5C130.686,109.481,134.085,109.781,136.385,109.481z"/>
<path fill="#FFFFFF" d="M101.285,110.681c-5.5,0.9-8.7,0.3-14.9,0.5C91.085,110.281,97.985,110.781,101.285,110.681z"/>
<path fill="#FFFFFF" d="M69.385,111.381c-1.2-0.2-4,0.6-4.6-0.7L69.385,111.381z"/>
<path fill="#FFFFFF" d="M190.585,111.381c-8.3-0.3-18.8,0.5-26.6,0.2v-0.7c8.8-0.3,16.7,0.3,24.4-0.2L190.585,111.381z"/>
<path fill="#FFFFFF" d="M80.686,111.181c-1.1-0.2-3.2,0.4-5.5,0.2C76.785,110.881,78.485,111.281,80.686,111.181z"/>
<path fill="#FFFFFF" d="M85.985,111.181h-1c0.2-0.5,0.6-0.2,1-0.3V111.181z"/>
<path fill="#FFFFFF" d="M220.385,118.381c-5.6,2.7-12.3,3.9-18.5,5.5c0.9-3-2.1-8.5,1.7-9.4c5.1-1.1,7.8-1.6,13.2-2.1
	L220.385,118.381z"/>
<polygon fill="#FFFFFF" points="101.985,113.081 103.485,112.781 102.785,113.081 "/>
<path fill="#FFFFFF" d="M105.186,112.781h0.9H105.186z"/>
<polygon fill="#FFFFFF" points="357.385,113.581 357.585,113.081 360.985,113.581 "/>
<polygon fill="#FFFFFF" points="83.085,113.581 83.285,113.281 89.285,113.581 "/>
<polygon fill="#FFFFFF" points="89.785,113.581 89.985,113.281 91.985,113.781 "/>
<path fill="#FFFFFF" d="M189.585,113.581c-8.5-0.2-16.1,1.2-24.2,0.7v-0.3C173.285,113.481,181.186,112.981,189.585,113.581z"/>
<path fill="#FFFFFF" d="M72.485,113.581c-1.3,0-2.8,0.9-3.8,0.2C70.085,113.381,71.686,113.581,72.485,113.581z"/>
<path fill="#FFFFFF" d="M77.785,113.581l1.2,0.2L77.785,113.581z"/>
<path fill="#FFFFFF" d="M79.985,113.581h2.1H79.985z"/>
<path fill="#FFFFFF" d="M94.585,113.581h1.4H94.585z"/>
<path fill="#FFFFFF" d="M131.585,114.481c-2.2,1.9-0.6,7.3-4.8,6.5c-3.2,1.7-4.2,5.2-4.4,8.6c0.4,4.5,2.4,9.7,7.2,11.1
	c2.9,1.4,4.1,5.9,7.7,6.7c0.7,1.2-0.2,2.3-0.7,3.4c-7.3,0-13.5,2.7-19.9,2.6c-1.4,1.2-3.9,0.7-5.5,0.5c-3.1-3.2-3.4-7.5-4.8-11.3
	c-0.6-2.3,1.3-6.1-1.7-7.7c-10.9,6.7-14.5,19.9-15.9,31.9c-4.9-14.2-0.6-32.3,11.3-42.2c1.4-1,3.5-2.2,4.8-0.2
	c1.3-0.3,1-1.7,1.7-2.4c3.8-3.9,8.5-5.2,13-7.5C123.285,113.981,127.985,112.581,131.585,114.481z"/>
<path fill="#FFFFFF" d="M191.985,113.781h1.2H191.985z"/>
<path fill="#FFFFFF" d="M370.085,115.181c-3.8-0.3-8,0.6-11.8,0.3C362.085,114.981,366.485,115.281,370.085,115.181z"/>
<path fill="#FFFFFF" d="M194.885,115.981c-9.7,0.3-18.4,0.2-28.3,0.9l-0.5-0.5C175.785,115.981,184.085,115.381,194.885,115.981z"/>
<path fill="#FFFFFF" d="M195.385,115.981h1.4H195.385z"/>
<path fill="#FFFFFF" d="M97.985,116.381c-8.1,1-14.7-0.1-22.8,2l-1.2-1C82.485,116.681,90.085,116.181,97.985,116.381z"/>
<path fill="#FFFFFF" d="M100.085,116.181h0.7H100.085z"/>
<path fill="#FFFFFF" d="M101.585,116.181h2.1H101.585z"/>
<path fill="#FFFFFF" d="M104.186,116.181h1.7H104.186z"/>
<path fill="#FFFFFF" d="M106.385,116.181h0.7H106.385z"/>
<path fill="#FFFFFF" d="M108.985,116.181c-0.3,0.6-1.1,0.6-1.4,0.2C107.885,116.081,108.485,116.181,108.985,116.181z"/>
<path fill="#FFFFFF" d="M369.885,116.881c-4.6,1-8.5,0-13.2,1C360.785,116.781,364.985,116.881,369.885,116.881z"/>
<path fill="#FFFFFF" d="M370.285,116.881h1H370.285z"/>
<path fill="#FFFFFF" d="M197.585,118.581c-9.6-0.3-21.6,1.5-30.5,1.2l-0.3-0.7c11.3-2.1,18.4,0,30.8-1V118.581z"/>
<path fill="#FFFFFF" d="M95.785,119.281c-5.2,0.9-12.4,0.3-17.8,1.5l-0.7-0.8c5-1.1,12.4-0.2,18.5-1.2V119.281z"/>
<path fill="#FFFFFF" d="M101.785,119.081c-1,0.2-4.4-0.5-4.6,0C98.785,119.281,99.985,118.381,101.785,119.081z"/>
<path fill="#FFFFFF" d="M378.686,119.581v0.7c-8.7-0.3-15.6,0.5-23.2,0.5l-1.5-0.8c8-1,16.5-0.9,24.5-0.9L378.686,119.581z"/>
<path fill="#FFFFFF" d="M222.485,121.481l-23.7,7.7l-0.8,0.9c-1.3-0.5-0.1-1.4,0.3-2.1c7.1-3.3,15.7-4.6,23.3-7.7L222.485,121.481z"
	/>
<path fill="#FFFFFF" d="M197.785,121.481c-10-0.6-20.7,1-30,0.5c6.4-1.2,11.5,0.2,17.5-1.2l12.5,0.2V121.481z"/>
<path fill="#FFFFFF" d="M101.785,121.481c-2.4,0.4-6.1,0.2-7.7,0.2C97.085,121.981,98.785,121.181,101.785,121.481z"/>
<path fill="#FFFFFF" d="M93.385,121.981c-3.9,0.2-8.9,1-12.7,0.7v-0.3C85.186,121.481,89.186,122.481,93.385,121.981z"/>
<path fill="#FFFFFF" d="M371.085,122.181l-5.8,0.2C367.186,121.981,369.085,122.281,371.085,122.181z"/>
<path fill="#FFFFFF" d="M364.785,122.181c-3.6,0.2-8.6,1.1-12.9,1.4c1.7-1.8,5.1-0.4,7.4-1.4H364.785z"/>
<path fill="#FFFFFF" d="M128.385,122.681c0.1,5.5-0.3,9.9,1.2,15.1c-1.8,0.3-3.1-2.2-3.8-3.6
	C124.485,130.381,124.686,124.481,128.385,122.681z"/>
<path fill="#FFFFFF" d="M188.686,123.581c-7.2,0.4-14.3,1.2-21.4,1.2v-0.7C173.985,122.881,182.285,123.381,188.686,123.581z"/>
<path fill="#FFFFFF" d="M197.285,123.581c-0.6,0.5-1.7-0.1-2.1,1c-0.1,0.5,0,0.9,0.4,1.2c0.8-0.2,1.4-0.6,2.2-0.5
	c-1.7,3-4.2-1.3-6-1.7H197.285z"/>
<path fill="#FFFFFF" d="M377.985,124.381c-8.6,0.9-19,1.1-28.1,1.6c2.7-1.1,5.8-0.6,8.9-1.4
	C365.686,123.581,371.186,124.181,377.985,124.381z"/>
<path fill="#FFFFFF" d="M95.585,124.081c-3.2,0.9-6.6,1.3-10.6,1.5l-0.7-0.8C88.285,124.781,91.485,123.681,95.585,124.081z"/>
<path fill="#FFFFFF" d="M275.085,126.281c1.6,5.6,1.5,11.9,3.8,17.3c-0.3,1.5,1.9,5.7-1,5.5h-0.4c-1.1-5.8-2.6-10.5-3.9-16.1
	c-1.2-2.8-2.2-6.4,0.3-8.9C274.985,124.281,274.585,125.581,275.085,126.281z"/>
<path fill="#FFFFFF" d="M189.585,125.781v0.7c-5.1-0.8-10.2,1.4-15.8,1c0.1-1.5,2-0.7,2.9-1.2c4.2-0.6,8.7,0.1,12.2-0.7
	C189.085,125.881,189.385,125.781,189.585,125.781z"/>
<path fill="#FFFFFF" d="M195.585,130.581c0.1,1.4,0.9,2.9,0.3,4.3c-2.7-0.9-2.6-3.8-3.9-5.7l0.3-2.9
	C194.085,126.481,194.485,129.181,195.585,130.581z"/>
<path fill="#FFFFFF" d="M94.085,126.981c-1.5,0.6-4.9,0.8-6,0.7C90.385,127.281,91.885,127.481,94.085,126.981z"/>
<path fill="#FFFFFF" d="M188.385,128.381c-2-0.6-6.8,1.3-9.6,0.3C181.686,127.881,185.385,128.081,188.385,128.381z"/>
<path fill="#FFFFFF" d="M378.485,128.881c-13.1,0.4-21.5,1.1-33.4,2.2c0.4-1,1.4-1.3,2.2-1.5
	C358.785,129.081,367.085,128.181,378.485,128.881z"/>
<polygon fill="#FFFFFF" points="91.186,130.781 90.785,129.581 91.485,129.881 "/>
<path fill="#FFFFFF" d="M167.085,131.981c3.8-1.6,7.8-0.7,12.5-1.6l8.1,0.2L167.085,131.981z"/>
<path fill="#FFFFFF" d="M188.385,130.581h1.2H188.385z"/>
<path fill="#FFFFFF" d="M378.485,131.281c-11.5,0.7-23.4,2.7-36,1.9l1-0.4c10.2-0.8,20.3-2.6,30.2-1.2L378.485,131.281z"/>
<path fill="#FFFFFF" d="M191.285,133.481l-1.4,0.5c-6.4-0.1-16.3,0.6-23.1,0.2l0.3-0.2
	C175.485,133.681,183.085,131.181,191.285,133.481z"/>
<path fill="#FFFFFF" d="M378.485,134.381c-14.7,1.9-29.6,1.3-43.4,2.4l3.3-1.4C351.485,135.781,365.885,133.681,378.485,134.381z"/>
<path fill="#FFFFFF" d="M193.186,136.081c-8.2,0.1-18.7,0.8-27.6,1.2l0.5-1.2C176.186,136.481,184.785,135.381,193.186,136.081z"/>
<path fill="#FFFFFF" d="M377.985,137.081c-15.4,1.8-34,1.2-49.4,2.4c16.1-1.8,29.3-2.5,45.1-2.2
	C375.085,137.181,376.585,136.381,377.985,137.081z"/>
<path fill="#FFFFFF" d="M201.585,138.481l-0.7,0.5c-8.8-0.1-18.4,0.2-27.3-0.2C182.785,136.881,191.985,139.281,201.585,138.481z"/>
<path fill="#FFFFFF" d="M165.585,140.181c5.6-0.3,8.1,0.5,13.7,0.2c-4.1,0.5-9.2,0.4-14.1,0.8l-0.8-1.5
	C164.985,139.681,165.485,139.381,165.585,140.181z"/>
<path fill="#FFFFFF" d="M377.985,140.381c-16.4,2-35.2,1.2-50.1,1.7v-0.5c16.7-2,33.1-1.1,50.1-1.6V140.381z"/>
<polygon fill="#FFFFFF" points="179.985,140.681 179.985,140.381 184.385,140.381 "/>
<path d="M130.385,142.581v0.7c-0.9,0.5-2.3,0.3-2.7-0.7C128.385,141.481,129.785,142.581,130.385,142.581z"/>
<path fill="#FFFFFF" d="M197.585,142.381c-8.2,0-15.4,1-23.1,0.4C182.785,141.281,189.585,142.781,197.585,142.381z"/>
<path fill="#FFFFFF" d="M199.186,142.081c-0.1,0.2-0.5,0.7-0.9,0.5C197.885,142.381,198.785,141.881,199.186,142.081z"/>
<path fill="#FFFFFF" d="M199.686,142.081l2.4,0.3L199.686,142.081z"/>
<path fill="#FFFFFF" d="M103.985,142.781c0.5,0.4-0.1,1.3,0.4,1.7c-1.8,0.2-4-0.3-6-0.5
	C98.885,142.081,102.085,142.581,103.985,142.781z"/>
<polygon fill="#FFFFFF" points="164.186,143.081 164.686,142.781 165.186,142.781 "/>
<path fill="#FFFFFF" d="M168.285,142.781c-0.9,0.1-1.6,0.4-2.7,0.3C166.385,142.581,167.385,142.881,168.285,142.781z"/>
<path fill="#FFFFFF" d="M170.686,142.781h1.4H170.686z"/>
<path fill="#FFFFFF" d="M377.085,143.281c-16.1,1.4-35.9,2.4-50.9,1.9l0.5-0.9c12.5-1.2,26.9,0.3,39.3-1.2
	C369.785,144.181,373.985,142.881,377.085,143.281z"/>
<path fill="#FFFFFF" d="M203.285,144.781v0.9l-36.5,0.3c-0.3-0.3-0.3-0.8-0.7-1c2.5-0.6,3.9-0.1,6.3-0.2H203.285z"/>
<path d="M132.285,145.981c-1.3,0.7-3-0.3-4.6-0.3c-0.3-0.5,0.2-0.7,0.7-0.9C129.885,144.781,131.585,144.481,132.285,145.981z"/>
<path fill="#FFFFFF" d="M162.785,144.981c-0.9,0.2-2.7,2.3-4.1,1c-1.9,0.3-3.1,0.4-5.1,0.7
	C156.186,143.981,159.285,145.881,162.785,144.981z"/>
<path fill="#FFFFFF" d="M163.186,144.981h0.8H163.186z"/>
<path fill="#FFFFFF" d="M377.985,146.381c-0.1,1.6-2.7,1-3.6,1.5c-17.3-0.7-33.7,0-50.6,1.2c0.2-1.7,1.6-1,2.4-1.5
	c15.5,0,34.6-1,51.6-1.6L377.985,146.381z"/>
<path fill="#FFFFFF" d="M105.585,148.381c-3-0.5-6.2-0.5-9.3,0.2c0.5-1,0.8-2.2,2.1-2.4
	C101.085,146.181,104.585,145.681,105.585,148.381z"/>
<path fill="#FFFFFF" d="M162.785,152.181c-0.2,5.6,1,11.8,5.5,15.1c-3.3,2.2-7,3.8-8.2,7.7c-2-0.4-2.1-3.9-3.3-5.8
	c-2-6,0.4-12,1.6-17.5c0.7-2.1,3.3-4.8,5.1-5C165.785,148.681,162.285,150.281,162.785,152.181z"/>
<polygon fill="#FFFFFF" points="175.985,147.381 178.085,147.181 178.385,147.181 "/>
<polygon fill="#FFFFFF" points="178.785,147.381 179.085,147.181 179.785,147.381 "/>
<path d="M134.385,148.081c0.6,0.4,0.1,1.2-0.4,1.2c-2.5,0.3-4.2-0.4-6.8-0.5c-0.1-0.6,1-0.6,1.5-0.9L134.385,148.081z"/>
<path fill="#FFFFFF" d="M199.186,147.881h4.8H199.186z"/>
<path fill="#FFFFFF" d="M157.186,149.581c-4.6,0.7-10.8,0.5-14.8,0.2c5.2-0.5,10.6-1,15.6-1.4L157.186,149.581z"/>
<path fill="#FFFFFF" d="M168.485,158.381c0.1,2.3,0.6,4.5,1.5,6.5c-3-0.2-3.7-4.3-4.6-7.2c-0.3-3-0.8-6.5,1-9.3
	C172.085,148.681,167.385,154.881,168.485,158.381z"/>
<path fill="#FFFFFF" d="M181.985,149.581c-3.3,1-7.7,0-10.4,0c3.3-0.5,7.5-0.2,10.4-0.3V149.581z"/>
<path fill="#FFFFFF" d="M191.285,150.481c-0.9-0.5-1.9-0.7-2.9-0.9c0.9-0.2,2.1-0.8,3.2,0L191.285,150.481z"/>
<path fill="#FFFFFF" d="M106.085,149.981c1.9,3.7-4,5.2-4.8,8.7c-1.3,3.2-3.3,6.1-3.8,9.6l-5.8,0.9c-0.1-4.7-0.1-10,1.9-14.1
	c2.2-0.9,5.5-0.3,7.7-1.5c0.1-0.5,0-0.9-0.5-1.2c-2.2,0.9-4.1,0.2-6.4,0.8c0.8-1,0.2-2.1,1.4-2.7l-0.2-0.2
	C97.885,149.881,102.985,148.981,106.085,149.981z"/>
<path fill="#FFFFFF" d="M200.385,149.781c-1.7,0.1-4.5,0.3-6.7,0.2l-0.2-0.4L200.385,149.781z"/>
<path fill="#FFFFFF" d="M361.686,149.781v0.2c-13.1,1.2-26.6,0.3-40.6,2l0.5-1c6.7,0.2,14.1-1.3,20.9-1.4
	C349.885,149.981,354.686,149.681,361.686,149.781z"/>
<polygon fill="#FFFFFF" points="363.585,150.281 363.585,149.781 369.585,149.981 "/>
<path fill="#FFFFFF" d="M188.385,159.881c0.1,7.3-1,15.1-7.4,19.6l-6,2.4c-2.3-2.4-4-5.2-5.3-8.1c-0.8-0.7-2.2-0.7-3.3,0
	c-2,1.7-4.6,3.2-3.9,6.2c1.1,0.9,0.8,2.4,1.2,3.6c1.7,2.1,4.4,2.9,6,3.9c0.6-0.1,1,0.4,1.7,0.2c0.8-0.4,0.2-1.8,1.4-1.7
	c-0.6,2.8-0.6,6.9-0.9,10.8c-1.9,11.9-2.1,24.1-3.6,35.5l-2.2-3.6l0.7-0.2c1.2-11.1,2.8-23.8,1.5-35c-1-1.7-2.9-1.9-4.3-1.7
	c-2.6,5.4-2.9,11-3.2,17c-0.6,0.5-1.2-0.5-1.9-0.5c2-9.4,2.7-19,2.4-28.5c1-9.5,10.6-11.4,17.5-13.9c3.7-4.3,6.1-9.8,5.8-15.1
	C187.985,152.081,187.885,156.481,188.385,159.881z"/>
<path fill="#FFFFFF" d="M176.686,151.981c-2.2-0.3-3.3,0.4-5.3,0C172.585,151.081,175.385,151.781,176.686,151.981z"/>
<path fill="#FFFFFF" d="M193.485,154.781c0.2,3.9,4.1,9.7-1.5,12.5h-1.4c0.9-4.7,0.7-10.8-1.7-15.1l0.3-0.7
	C190.785,151.781,192.485,153.281,193.485,154.781z"/>
<path fill="#FFFFFF" d="M283.485,152.881c-1.5,2.7-4.8,2.8-8.2,2.9l-1.9-0.5c0-1,0.7-2.8,2.1-3.1
	C278.385,152.881,281.285,149.681,283.485,152.881z"/>
<path fill="#FFFFFF" d="M207.186,152.681l-12.5,0.5l-1.5-1.5C197.385,152.481,202.785,150.981,207.186,152.681z"/>
<path fill="#FFFFFF" d="M150.285,152.181c-3.3,1.1-6.2-0.1-9.6,0.7h-2.7C141.385,150.881,147.385,152.781,150.285,152.181z"/>
<path fill="#FFFFFF" d="M377.785,152.381c-19.3,1.9-40.9,2.3-60.5,3.4c0.6-2.3,2.5-0.9,4.1-1.9c11.9-1.8,24.3-0.6,36.9-1.9
	C364.385,153.181,371.585,151.481,377.785,152.381z"/>
<path fill="#FFFFFF" d="M136.585,184.281c-5,2.9-9.8,7.3-14.9,10.6c-3.2-10.2-0.9-19.4-1.9-30.2v-8.4c0.3-0.8,1.2-1.3,1.9-0.7
	c-0.1,11.5,0.9,23.8,2.9,35h0.5c-1.1-12.6-2-22.3-1.7-34.3c-0.3-0.3-0.3-0.7-0.7-1c2.5-0.6,7.5-1.6,10.8-1.7
	C134.485,163.581,135.186,173.981,136.585,184.281z"/>
<polygon fill="#FFFFFF" points="171.385,154.381 174.785,153.881 179.785,154.381 "/>
<polygon fill="#FFFFFF" points="149.985,154.581 152.686,154.381 154.585,154.781 "/>
<path fill="#FFFFFF" d="M203.085,154.781l-7.5,0.3c-0.3-0.9,0.6-0.2,0.8-0.7C198.885,155.181,200.485,154.681,203.085,154.781z"/>
<polygon fill="#FFFFFF" points="207.186,155.081 207.385,154.781 208.385,155.081 "/>
<path fill="#FFFFFF" d="M181.186,156.681c-2.7,0.4-7.2,0.4-10.3,0.3c0.4-1.6,2.9,0,4.1-0.5L181.186,156.681z"/>
<path fill="#FFFFFF" d="M138.285,156.681h-1.5C137.485,156.681,137.585,156.681,138.285,156.681z"/>
<path fill="#FFFFFF" d="M209.585,157.181c-4,0.7-8,0-12.8,0.5l-0.2-1.2C200.885,157.381,205.085,156.681,209.585,157.181z"/>
<path fill="#FFFFFF" d="M117.885,170.181l0.2,14.9c-0.2-8.3-2.8-16.1-0.5-24.8c0.1-1.2-1.1-2.5-0.2-3.6
	C118.285,159.981,117.686,165.381,117.885,170.181z"/>
<path fill="#FFFFFF" d="M141.385,156.681h2.9H141.385z"/>
<path fill="#FFFFFF" d="M144.785,156.681l4.5,0.3L144.785,156.681z"/>
<path fill="#FFFFFF" d="M113.285,168.281c-2.4,0.1-3.7,0.6-6,0.9c-0.9-4.5,1.2-8.4,3.4-12l2.9-0.2
	C113.785,160.881,114.085,164.481,113.285,168.281z"/>
<path fill="#FFFFFF" d="M377.985,157.481c-8.5,0.7-17,0.3-25.7,1.4c-15.3,2-27.8,1.1-44.4,1.7c2.1-2.1,6.3-0.9,8.9-1.5
	c15.3-0.1,28.8-1.6,45.4-1.4C368.285,157.581,372.186,156.981,377.985,157.481z"/>
<path fill="#FFFFFF" d="M151.186,159.081h-14.6l0.2-0.4C141.585,158.781,147.485,159.281,151.186,159.081z"/>
<polygon fill="#FFFFFF" points="152.186,159.081 152.686,158.881 152.885,159.081 "/>
<path fill="#FFFFFF" d="M179.985,160.081c-3.1-0.7-5.3,0.4-8.6,0v-1.2l8.6,0.2V160.081z"/>
<path fill="#FFFFFF" d="M210.785,159.581l0.7,0.7c-4.8,0-9.5,0.1-14.4-0.2l0.2-1C202.186,160.381,206.885,158.681,210.785,159.581z"
	/>
<path fill="#FFFFFF" d="M377.985,161.281c-24.1,1.4-45.7,1.1-68.9,2.2c-6.4,0-12.8-0.1-19.4,0.2c0.5-0.6,1.6-0.9,2.4-0.2
	c16.4-1.8,37.5-0.4,54.2-2.2c10.3,0.3,21-2.6,31.7-1.2V161.281z"/>
<path fill="#FFFFFF" d="M298.085,161.081c-1.8,0.5-4.4,0.4-6.5,0.4l1.2-0.9L298.085,161.081z"/>
<polygon fill="#FFFFFF" points="138.985,161.781 138.785,161.081 140.885,161.281 "/>
<path fill="#FFFFFF" d="M178.785,162.281c-1.7,1.2-4.8-0.4-7.2,0.4l-0.2-0.7L178.785,162.281z"/>
<path fill="#FFFFFF" d="M150.485,163.881h3.1l-0.2,0.5c-3.3-1.6-9.8,2.5-12.2-1.7C144.085,164.081,147.785,163.081,150.485,163.881z
	"/>
<path fill="#FFFFFF" d="M377.985,165.081l-19.9,0.5l-48.5,0.3l-18.5,0.4l-0.4-0.4c-0.2,0.1-0.3,0.3-0.5,0.2v-0.5
	c20.6,0,40.4-0.6,61.7-1.4c8.5,0.2,18-0.3,26.1-0.5V165.081z"/>
<path fill="#FFFFFF" d="M210.285,164.181c-0.2,0.1-0.3,0.2-0.3,0.5c-0.4,0.2-1.2-0.5-0.7-0.8L210.285,164.181z"/>
<path fill="#FFFFFF" d="M211.985,169.481c-0.5,0.3-1.2,0.3-1.2,0.9c0.2,1,1.2,1,2.1,1c-0.5-2.3,2.9-0.6,3.9-1
	c4.4,2.4,9.7,3.1,12.7,7.9c5.3,2.7,10.4,6.2,15.3,9.2c4,3.3,8.5,6.5,13.9,6.7c1.4,1,1.5,2.6,1.2,3.8c-2.3,0.5-3.6,3.1-5,4.8
	c-0.8-0.6-2.3-2-3.4-0.5c-2.4-3.1-7.2-3.1-9.8-6.4l-1.7,0.4c-0.4-2.2,4-0.3,2.4-3.3c-1.4-2-4-1.4-5.7-0.5c-2.5,1.5-5.4,3.3-7.2,5.3
	c-0.4-3.3,8.5-5.7,2.4-7.9c-1.3-0.4-3.9,0-4.3-2.2c-4.4,0.7-6.5,5.3-9.4,8.2l-0.5-0.8c0.7-2.4,3.6-4.8,2.2-7.2
	c-0.2-2.7,4.8-4.5,1.2-6.7c-1.9,0-3.1,1.9-4.3,2.7c0.7-1.2,0.9-2.8,0.4-4.1c-4.7-5.2-13.7-2.3-17.7-8.7c-2-0.8-4.1-1.2-6-2.1
	c0.1-3.2,3.8-2.5,5-4.8C203.485,164.581,209.485,164.581,211.985,169.481z"/>
<path fill="#FFFFFF" d="M174.785,164.681c-0.2,0.3-1.7,1.4-1.5,0H174.785z"/>
<path fill="#FFFFFF" d="M159.186,178.781c-1,2.3-0.1,4.9,0,7l-0.8,10.1c-1-4-1.1-10.6-6.7-12.3c-3.3-2.4-7.5-1.3-11-0.2
	c0.6-6.4-0.4-12.2,0-18.5C146.485,169.681,153.686,174.281,159.186,178.781z"/>
<path d="M204.785,166.081c0.3,1.1-1.1,1.4-1.7,1.7c-1-0.2-2.7,0.5-2.9-1c-0.2-1,0.5-1.2,1.2-1.7
	C202.585,165.381,204.085,164.581,204.785,166.081z"/>
<path fill="#FFFFFF" d="M287.285,169.481c-3,0.3-6.1,1.9-8.2,3.3c2.1-2.7,5.2-3.9,6.8-6.7
	C287.085,166.981,287.785,167.981,287.285,169.481z"/>
<path fill="#FFFFFF" d="M147.585,166.581c0.1,0.3-0.3,0.5-0.4,0.7l-1.2-1C146.485,166.381,147.186,166.181,147.585,166.581z"/>
<path fill="#FFFFFF" d="M151.686,166.581h-2.6C149.985,166.081,150.585,166.781,151.686,166.581z"/>
<path fill="#FFFFFF" d="M223.485,170.681l0.2,0.7c-3-1.8-6.6-3.5-9.8-3.4l-0.5-0.5c1.2-0.9,3-1.2,4.8-1.2
	C219.686,167.881,221.485,169.681,223.485,170.681z"/>
<path d="M209.285,168.681c-0.6,0.6-1.3,0.9-2.1,0.8c-0.9-0.8-0.7-1.7,0-2.4C208.385,166.781,208.985,167.781,209.285,168.681z"/>
<path fill="#FFFFFF" d="M347.985,167.481c-8.1,0.4-18.6,1.5-26.1-0.2L347.985,167.481z"/>
<path fill="#FFFFFF" d="M377.985,168.681l-12.9-0.7c3.4-0.9,9-0.3,12.7-0.5C378.186,167.781,377.885,168.281,377.985,168.681z"/>
<path fill="#FFFFFF" d="M333.385,174.681c14.9,10.3,13,30.8,12.7,46.4c-1.7,11.6-2.3,22.5-5,34c-2.6,9.7-5.2,19.9-8.9,29.3
	c-6.4,17-15.6,32.6-25.5,48.7c-4.8,6-11.2,13.6-18.7,16.8c1.9-3.6,1.3-8.9,5.8-10.8c8.3-6.8,13.7-15.7,19.4-24.7
	c6.3-11.1,12.7-22.4,16.8-34.8c6.4-22.3,13.6-46.1,10.6-70.5c-2.2-12.8-9-27.5-23.1-31.2c-13.7-2.8-24.4,0.2-36.2,5.7
	c-6.6,4.2-13.1,7.5-18.2,14.7c-1.2-1.7-0.4-4.3-2.7-5.6c-0.8-0.3-1.9,0.2-2.4-0.9c15.9-14.3,36.8-26.4,58.1-23.5
	C322.285,168.581,328.186,171.881,333.385,174.681z"/>
<path fill="#FFFFFF" d="M154.085,169.481l-4.8-0.3v-0.5C150.785,168.681,152.485,169.181,154.085,169.481z"/>
<path fill="#FFFFFF" d="M377.785,171.081c-16.5,0.2-33.5-0.3-48-0.4l-0.5-0.5C344.785,169.381,361.885,169.381,377.785,171.081z"/>
<path fill="#FFFFFF" d="M42.285,170.681c2.3,2.1,0.8,8.8,5.7,6.9c1-0.4,1.3,0.8,1.2,1.5c0,5.2,0,8.3,0,12.9c-3.8,3-5.5,7.5-6.4,11.5
	c0-10.7-1-22-2-32.8H42.285z"/>
<path fill="#FFFFFF" d="M193.186,171.081c0.3,11.1-3.7,21.6-6.9,31.7c0.1,0.7,0.4,1.5,1.2,1.7c0.7-0.8,0.9,1.1,1.9,0.5
	c3.6-10.2,10-19.5,10.8-30.5c1,0.4,2,2.4,3.4,2.6c-2.3,10.7-8.8,19.9-11.6,30.8l-7.4-3.4c3.9-10,6-22,7.4-33.6L193.186,171.081z"/>
<path fill="#FFFFFF" d="M198.785,173.281c-1,10.9-6.2,20-10.4,29.5c1.9-9.9,7.1-20.2,6.8-30.9
	C196.485,171.981,197.686,172.481,198.785,173.281z"/>
<path fill="#FFFFFF" d="M377.785,173.981v0.7c-6.9,0.8-13.9-1.5-21.1-0.7l-21.6-0.2c0.1-0.4-0.3-0.5-0.5-0.7
	C348.686,172.681,362.585,172.581,377.785,173.981z"/>
<path d="M218.885,174.481v0.2h-1.4v-1.4C218.686,172.981,218.585,173.681,218.885,174.481z"/>
<path fill="#FFFFFF" d="M277.186,173.781c-6.8,4.6-14.3,9.6-20.6,16.3c-1.9-3.7-4.3-7.9-8.4-10.1
	C257.385,176.781,267.085,175.481,277.186,173.781z"/>
<path fill="#FFFFFF" d="M164.885,179.081c-0.2-1.3,1.2-2.4,2.2-3.4h0.9L164.885,179.081z"/>
<path fill="#FFFFFF" d="M186.285,179.981c-3.2,4.2-13.3,2.9-10.3,10.6c-1.7,8.2-1.8,15.5-2.7,23.7h-0.5c-0.7-8.8,2.2-17.9,2.2-27.3
	c1.2-4.2,6-3.8,8.9-6c2-0.9,2.7-3.8,4.3-5.1C187.985,176.881,187.885,179.281,186.285,179.981z"/>
<path fill="#FFFFFF" d="M371.085,176.881c2.3-0.3,3.8,0.5,6.4,0.2l0.5,0.8c-1,0.3-2.4,0.3-3.3,0c-3.5,0.4-9-0.7-13-1l-21.6-1
	C350.385,176.981,359.985,174.781,371.085,176.881z"/>
<path fill="#FFFFFF" d="M212.885,179.281c-4.5,10.5-11.1,20.2-14.4,31.2c0.2,0.3,0.5,0.2,0.7,0.2c4-10.6,10.1-20.7,14.7-30.9
	c0.7,0.4,1.7,0.9,0.9,1.9c-1.1,0.7-1.3,1.9-1.2,3.1c-5.2,7.5-6.9,17.1-11.5,25.2c0.6,1.1-1.3,2.6,0.7,2.7
	c3.7-9.1,7.9-18.8,14.7-26.7l0.9-0.2c-0.8,1.8-2.9,3.6-1.4,5.7c-1.9,3-2.3,6.6-2.6,10.1c-2,3.7-4.3,7.3-5.1,11.5
	c0.2,0.3,0.5,0.3,0.7,0.3c3-7,5.7-12.7,11.6-18.3c1.2-1.7,2.2-3.2,4-4.5c1.3,1.5,2.9,0.9,4.8,1.4c-2.3,3.9-5.9,7.3-6.2,12
	c-2.5,3.9-4.7,7.9-6.5,12l0.3,0.3c2.7-3.5,4.5-7.8,7.2-11.6c3.2-1.1,4.4-5.3,6.9-7.2c2.2-1.3,4.2-3.2,6.7-3.8
	c-1.2,2.2-4,4.9-4.3,7.7c1.9,1.7,3.8-3,6.5-3.1c0.7,0.7,2.5,1.2,1.9,2.4c-5.3,6.5-10.4,13.2-13,20.8l0.8,0.8
	c3.3-7.3,8-14.1,13.2-20.7c1-2.2,2.5,0.1,3.8,0.3c1.2,0.6-0.2,1.5-0.5,1.9c-6.3,7.8-13.2,15.3-15.8,24.7c0.1,0.3,0.4,0.2,0.7,0.2
	c2.7-6.9,6.7-13,11.5-18.9l0.3,0.2c1.7-2.3,3.7-4.5,5.5-6.2c0.7,0.4,3,0.3,1.9,1.7c-7.7,7.9-14.5,18.2-19.9,27.1
	c-12.5-8-26.2-16.1-38.6-24c3.5-10.9,9.1-20.5,12.7-31.2C207.585,177.981,210.686,177.881,212.885,179.281z"/>
<path fill="#FFFFFF" d="M169.985,179.281c-1.5,0.4-2.6,1.5-3.6,2.6c-0.1-1.3,1.4-2.7,2.8-3.8
	C169.785,178.181,169.985,178.781,169.985,179.281z"/>
<path fill="#FFFFFF" d="M363.385,178.781l0.9,0.5c-6-0.2-10.1,0.6-15.3-1l0.7-0.2C354.885,178.281,358.485,178.581,363.385,178.781z
	"/>
<path fill="#FFFFFF" d="M329.985,191.781c11.7,18.9,7.5,44.9,3.6,66c-6.3,26.6-16.8,52.2-36.9,73.2l-0.5,0.5
	c2.7-5.1,6.5-10.6,9.8-15.9c5.8-11.2,17.4-19,17.1-32.4c7.3-11.5,8-25.1,10.8-39.1c2.4-15.4,0.4-31.4-5.3-44.6
	c-4.5-6.5-10.6-12.1-19-12c-15.9-0.6-31.3,6.5-42.7,19.4c-5.6,6.9-11.3,13.2-15.6,20.6l-4.8,3.4c1.6-3,1.1-6.9,3.6-9.6
	c1.3-7.9,9.7-9.6,14.4-13.7c0.2-1.4-1.4-2.4-2.4-2.9l-1.4-0.2c10.4-15.4,28.6-22.9,44.8-25.4
	C315.686,177.581,325.186,183.181,329.985,191.781z"/>
<path fill="#FFFFFF" d="M363.585,188.881c6.6,3.9,9.5,11.9,12.7,18.5c1.6,4,1.5,8.9,4.8,12c-1,1.5-2.6,2.6-3.8,4.3
	c-2.8-1.7-3.9-5.4-5-8.4c0.3-12.3-7.7-19.6-16.6-26.4c-3.8-1.7-7.3-3.4-11.3-4.1c0.5-1.9-3.4-3.2-0.9-4.8
	C350.885,181.181,359.085,182.681,363.585,188.881z"/>
<path fill="#FFFFFF" d="M377.985,182.181c-6.6-0.7-13.7,0.4-19.9-1c2.4-0.5,5.2,0.3,7.4,0
	C369.085,181.481,373.985,181.481,377.985,182.181z"/>
<path fill="#FFFFFF" d="M172.385,182.681c-2.3-1.3-2.5,2.4-4.4,1.2c0.6-1.1,1.5-1.9,2.7-2.7
	C171.285,181.281,172.285,181.781,172.385,182.681z"/>
<path fill="#FFFFFF" d="M54.985,184.081c-1.5-0.1-3.1,1.5-3.4-0.7L54.985,184.081z"/>
<path fill="#FFFFFF" d="M377.485,184.781c-5.5,0.1-11,0.1-16-0.9C366.385,183.081,372.285,184.181,377.485,184.781z"/>
<path fill="#FFFFFF" d="M154.585,189.881c3.6,8-1.7,16.1-6.5,22.3l-8.6,6.9c-0.6,0.7-0.1,1.8,0.7,2l1.9-0.5c3.3-3,6.9-4.5,9.4-8.4
	c3.6,1.1,9.4-0.9,10.5,4.5c1,9.1-7.9,15-13.4,20.7c-2.1,2.2-5.5,2.4-7.4,3.8c0.3,2.1,2.6,1.8,4,1.5c6.2-2.9,11-9.4,15.9-13.5
	c1.8,1,3.9,2.3,4.1,4.8c0.1,5.4-2.7,9.5-4.8,13.9c-3.9,6.7-10.4,11.3-18.3,11.3c-0.4,0.3-0.5,0.7-0.5,1.2c2.6,2.5,7-0.2,10.4-0.7
	c3.8-1.6,7.7-5.1,10-8.2c1.5,0.1,2.8,1.5,3.4,2.7c0.5,8.6-4.5,16.7-11.3,22.5c-9,5.9-19.2,7.3-29.7,8.7c-3.8,0.5-6.5-1.8-9.6-2.7
	c-1.4,1.1,0.5,2,0.2,3.2l6.7,4.8c-0.9,3.1-0.4,8.4-5.3,8.4c-3.9,1.7-8.4,2-12.2-0.3c0.2-1.7-0.9-3.3-2.4-3.8
	c-0.9-0.2-1.7-0.3-2.6-0.3c-0.4-1.6-0.9-3.6-2.9-3.8c-3.6,1.1-2.5-4.9-6.7-3.4c0.1-2-1.9-3.1-3.4-3.8c-3,1.5-1.6-3.1-4.1-3.6
	c-0.1-3.5-3.4-5.7-4.3-8.9c-3.9-7.2-1.6-17.5-1.9-24.7c1.9-0.7,0.2-2.9,1.4-3.8c3.6-7.9,10.2-17.6,18-20c-0.5,3.6-0.5,8.1,2.4,10.8
	c0.7,0.2,1.3-0.1,1.7-0.7c-1-1.8-2-4-1.9-6c0.7,2,2.4,3.2,4.1,4.3c0.8-1.5,3.5,0.6,3.1-2.1c-6.7-5.8-7.6-15.9-5.5-24.5
	c1.4-6.3,7.9-11.2,13.6-13.2c1.3,0.1,2.4,0.5,2.4,1.9c0.4,1.7-1.6,2.5-0.9,4.3c-2.6,1.6-7.5,1.5-7.2,5.8c0.4,0.7,1.3,1,1.9,0.5
	c0.7-2.5,3.6-2.5,5.5-3.4c-0.5,2.1-2.7,3.3-2.1,5.8l1.4,0.7c2.7-3.5,5.5-7,9.1-9.6c3.9-3.8,8.7-7.2,13.5-9.8
	C141.885,184.381,151.485,182.281,154.585,189.881z"/>
<path fill="#FFFFFF" d="M118.785,194.381c-0.6-2.5-0.8-6.3-0.7-8.9C118.485,188.681,118.785,191.281,118.785,194.381z"/>
<path fill="#FFFFFF" d="M377.985,187.481v0.4c-4.5,0.2-8.6-0.1-13.2-0.7l-0.5-0.5c2.8-0.7,5.8,0.4,8.9,0
	C374.686,186.581,376.585,186.881,377.985,187.481z"/>
<path fill="#FFFFFF" d="M185.985,187.181c-0.5-0.1-1.9,0.4-2.4-0.5c0.8-0.7,1.8,0.4,2.4,0V187.181z"/>
<path fill="#FFFFFF" d="M182.186,186.981c-0.6-0.4-1,0.7-1.4,0C181.285,187.381,181.485,186.281,182.186,186.981z"/>
<path fill="#FFFFFF" d="M253.885,190.581c-2.3-0.1-4.5-1.9-6.4-3.6C249.585,188.181,254.186,187.381,253.885,190.581z"/>
<polygon fill="#FFFFFF" points="345.885,189.081 345.885,188.681 346.585,189.081 "/>
<path fill="#FFFFFF" d="M185.285,189.381v0.7c-0.5,0.3-1.7-0.3-1.7-1.2C184.085,189.181,184.686,189.281,185.285,189.381z"/>
<path fill="#FFFFFF" d="M377.485,190.581h-8.8l-0.5-1C371.885,189.281,374.485,189.981,377.485,190.581z"/>
<path fill="#FFFFFF" d="M184.385,192.981l-2.2,7.7c-0.9-0.6-1.9-0.1-2.6,0.4c-0.3-3.5,1.2-7.3,2.4-10.8c-0.1,0.3,0.1,0.4,0.2,0.5
	h0.2v-0.9C182.585,191.481,183.885,191.381,184.385,192.981z"/>
<path fill="#FFFFFF" d="M55.485,190.581c-1.9,8.1-3.4,17.3-2.4,26.6c1.7,9.9,4.1,20.4,12.5,27.4c-3.9,1.2-8.7-0.7-11.8-4.1
	c-9.6-12.8-12.4-29.9-5.8-44.4C50.085,194.281,52.385,190.881,55.485,190.581z"/>
<path fill="#FFFFFF" d="M351.085,191.281c-1.1,0.2-2.9,0.3-4.5,0.2v-0.4L351.085,191.281z"/>
<path fill="#FFFFFF" d="M69.186,195.881l1.2,2.1c-2.7,0.5-4.7,0.8-6.3,3.1c-0.7,2.3,2.4,2.4,1.9,4.6l2,0.5l9.6-1.7
	c1.2,0.6,0.4,2.5,1.6,3.4c1.8,0.3,2.6-1.5,4.4-1.2c0.4,1.7-0.2,5.1,1.4,6.9c1.3,0,2.8-0.7,4.6-0.5c0.1,0.8,0.6,1.5,0.4,2.4l-0.7,0.5
	c-7.9,1.2-15,2.6-22.8,3.4c-1.3,0.2-1.5,1.6-2.4,2.4c0.3,1.9,0.1,4.7,2.7,5c5.4,1,9-2.4,14.4-1.7c1.9-0.1,4-0.7,5.7-0.7
	c-0.4,1.8-2.5,3.1-3.8,4.6c-4.3,4.6-7.2,9.7-8.9,15.3c-2.4,0.8-4.7-0.2-6.7-1.2c-13.3-13-14.3-32.7-9.9-50.8c2-0.6,4.4-1.1,6.5-0.5
	C64.885,193.681,65.785,197.781,69.186,195.881z"/>
<path fill="#FFFFFF" d="M377.785,192.981c-1.9,0.4-4.5,0.2-6.7,0.2l-0.5-0.7L377.785,192.981z"/>
<path d="M248.686,194.881l-0.5,0.5c-0.9,0-0.9-0.9-1.2-1.5v-0.9C247.985,192.981,249.485,193.681,248.686,194.881z"/>
<path fill="#FFFFFF" d="M324.686,197.481c1.7,1.6,2.7,3.9,2.9,6.3c-11.9-10.3-27-5.4-40.1-0.5c-8.5,2.8-15.5,9.9-22.8,15.4
	c-0.8,1.3,0,2.4-1.9,2.8c2.5-10.5,12.4-19.8,23.3-23.7c10.7-2.9,25.7-8,36.2-1.2L324.686,197.481z"/>
<path fill="#FFFFFF" d="M356.686,193.881l-9.4,0.5l-0.5-0.9l0.7-0.5C350.385,193.681,354.385,192.581,356.686,193.881z"/>
<path fill="#FFFFFF" d="M166.085,214.781l-0.2,0.3c-2.4-4.1-0.5-10.5-0.7-14.9l1.2-6.3
	C166.585,199.581,166.885,208.181,166.085,214.781z"/>
<path d="M255.085,196.081c0.2,0.7-0.6,1-0.9,1.4c-1.1-0.2-2.7-0.9-2.9-2.1C252.485,194.981,254.285,194.481,255.085,196.081z"/>
<path fill="#FFFFFF" d="M377.985,195.881c-2.2,0.6-3.8-0.2-5.7-0.3v-0.5l5.7,0.3V195.881z"/>
<path fill="#FFFFFF" d="M359.785,196.581c-3.5,0.2-8.5,0.7-12,0.5l-0.3-0.8C351.885,196.381,355.485,195.181,359.785,196.581z"/>
<path d="M52.585,198.681c0.2,1.5-0.3,2.6-1,3.6c-1.2,0.5-2.2,1.3-2.8-0.4c0.3-1.9,0-4.4,2.1-5.1
	C51.885,196.881,52.485,198.181,52.585,198.681z"/>
<path fill="#FFFFFF" d="M378.285,199.681c-1.4-0.2-4.8,0.3-4.4-2.2C375.085,198.981,379.085,196.481,378.285,199.681z"/>
<path fill="#FFFFFF" d="M363.085,199.681v0.7h-14.1c-0.4-0.4-0.2-1.1-0.3-1.7C353.485,199.181,358.686,197.681,363.085,199.681z"/>
<path fill="#FFFFFF" d="M260.686,200.181c-0.1,0.3,0.3,0.5,0.4,0.7c-1.6,1.4-3,3.1-4.8,4.1
	C257.085,203.281,258.385,200.381,260.686,200.181z"/>
<path fill="#FFFFFF" d="M77.085,201.581c-3.2,0.6-7.2,2.1-10.1,0.5c0.6-1.4,2.4-1.1,3.6-1.7
	C72.485,203.181,75.885,198.981,77.085,201.581z"/>
<path fill="#FFFFFF" d="M378.485,203.081c-1.5,0.4-2.2-0.6-2.6-1.7C376.686,202.181,379.085,200.481,378.485,203.081z"/>
<path fill="#FFFFFF" d="M365.785,202.781v0.5c-5.2-1-11.4,0.3-15.9-0.5v-0.5C355.085,202.181,361.285,201.581,365.785,202.781z"/>
<path d="M222.985,216.981c3-5.1,6.3-10.3,10.1-14.9C230.085,206.681,226.585,212.081,222.985,216.981z"/>
<path fill="#FFFFFF" d="M188.686,208.781c14.1,8.3,27.5,17.1,41.5,25.7c0.2,2.4,2.8,1.9,4.3,2.6c1,0.2,2.1-1.1,2.9-1.6
	c0.1,2.2-2.4,4.5-3.1,6.9c-10.6,4.3-18.1-6.1-26.7-10.3c-7-5.9-15.9-8.5-23.2-14.2c-1.4-3.3-5.9-4-7-7.4c1.4-2.5,1-5.6,3.4-7.7
	C181.186,206.981,186.385,206.481,188.686,208.781z"/>
<path fill="#FFFFFF" d="M322.285,211.181c6.2,11,4.8,26.2,1.2,38.2c-0.7,2.7-1.2,5.9-2.4,8.1c-0.1,6.4-4,13.1-6,18.5l0.3,1.2l-6,0.5
	c2.4-5.2,4.7-11.5,7.4-17c3.2-14.6,9.2-29.8,4.1-45.2c-2.8-4.9-8.6-8.6-14.9-8.4c-9.2-0.5-18,3.4-26.1,6c-1.7,1.1-3.4,1.9-5.3,2.4
	c8.7-8.5,21.9-12,33.3-12.7C313.585,202.881,318.686,207.381,322.285,211.181z"/>
<path fill="#FFFFFF" d="M328.585,209.081c3.5,5.9,3.1,14.3,4.1,20.4c-0.2,18.3-5.3,34-12.3,50.1c-1.2-0.7-2.4-1.6-3.8-1.9
	c3.3-3.4,3.3-8.5,5.5-12.5c4-16.2,9.5-33.3,4.6-49.9c-1.1-5.2-6.9-9.4-11.6-12C320.186,203.781,325.285,204.581,328.585,209.081z"/>
<path fill="#FFFFFF" d="M363.585,204.681c1.1,0.3,2.7,0.5,4.1,0.8v0.9c-5-0.7-12-0.4-17.3-1.2c0.1-1.5,2.6-0.1,3.9-0.2
	L363.585,204.681z"/>
<path fill="#FFFFFF" d="M254.885,206.181c-0.4,1.2-2.1,2.6-3.1,3.3C252.186,207.981,253.686,206.781,254.885,206.181z"/>
<path fill="#FFFFFF" d="M260.385,207.581c-4.1,1.3-7.4,5.2-11,7.5c2.3-3.7,6-6.3,8.4-8.9
	C258.485,206.481,259.585,206.881,260.385,207.581z"/>
<path fill="#FFFFFF" d="M366.686,210.281c-4.7-0.1-9.4,0.1-14.1,0.2l-1-1l0.7-0.4C356.686,209.781,362.985,209.481,366.686,210.281z
	"/>
<path fill="#FFFFFF" d="M245.485,216.281c1.1-1.9,3.8-5.2,5.8-6.8C249.985,212.181,247.385,213.781,245.485,216.281z"/>
<path fill="#FFFFFF" d="M314.385,212.681c4.9,4.3,4.9,11.4,5.3,18l-1.9,14.6c-15.2,35.8-44.4,63.6-77.5,85.2
	c-19.2,11.3-45.5,18.8-65.1,4.8c-3.9-2.6-8.2-5.7-11-9.4c-1.3-14.4-2.6-30-7.9-43.4c-0.7-0.4-1.7-1.1-1.7-1.9c4-1.3,5.1-5.5,8.9-7
	c3.9-6.3,7.8-15.3,3.1-22.5c-1.2-1.7-2.9-2.6-1.2-4.6l0.7-0.7c4.6,3.9,9,9.6,14.9,12c4.5,4.3,9.5,8.8,13.4,12.9
	c-10.5,4-18.9,15.2-21.3,25.5c0.9,1.3,2.2-0.3,2.4-1.2c3.5-10.2,12.6-22.1,23.7-23.3c-6.6,7.3-12.4,15.3-16,24l1.4,1.2
	c7.6-14.5,19.1-28.5,33.8-37.2c1.8-2.5,4.6-2.6,7-3.6c5.2-3.2,8.5-8.9,12-13.7c2.4-0.3,3.1-3.3,5.7-3.8c3.5-4.3,8.3-6.1,12.5-9.6
	l1.5-0.3c6.1-6.4,14.1-9.4,21.6-12.9C290.285,211.881,302.785,205.781,314.385,212.681z"/>
<path fill="#FFFFFF" d="M41.785,209.981c-0.8,9.5,2.3,18.5,6,26.7c-2.5,0.4-6.7,2.4-8.4-0.8c-4.1-6.5-6.1-14.2-4.8-21.8
	C36.485,212.081,38.985,210.381,41.785,209.981z"/>
<path fill="#FFFFFF" d="M367.186,210.281l1.5,0.2L367.186,210.281z"/>
<path fill="#FFFFFF" d="M369.585,212.881c-2.3,0.4-5.7,0.4-7.9,0c-2.8-0.1-6.5,0.6-9.4,0l0.3-1.2
	C357.686,212.781,363.485,211.381,369.585,212.881z"/>
<path fill="#FFFFFF" d="M188.385,222.981c11.6,5.2,20.7,13.4,32,19.2c2.9,4.2,7.6,2.8,11.7,3.3c-0.3,0.9-0.9,1.8-1.7,2.4
	c-1.4-1.3-3.8-0.2-5.5-0.9c-13.9-5.7-25.3-17.1-39.1-23.5c-3.3-2.6-8.8-4.7-9.1-9.4
	C181.285,216.281,183.785,221.181,188.385,222.981z"/>
<path fill="#FFFFFF" d="M369.585,215.281c0.5,0.3,0.2,0.8,0.3,1.2c-5.9-0.9-11,0.1-16.8-0.2c0.1-0.5-0.8-1.4,0.2-1.5
	L369.585,215.281z"/>
<path fill="#FFFFFF" d="M182.885,223.481c7.5,6.4,16.9,9.7,24.5,15.8c6.8,3.8,13.6,9.6,21.6,10.3l-5,4.6c-7.6,0.1-13.4-2.5-20.4-2.9
	c-2.9,5.3-5.3,11.2-9.4,15.6c-0.7-5.3,6.5-9.6,2.2-14.9c-3.5-0.5-6.3-5.1-9.6-1.7c-1.5,2.1-2.1,4.5-3.2,6.8
	c-0.8-0.3-1.5-0.7-2.1-1.5c1.9-4.4,4.6-8.8,6.9-12.9c1.4-3.6-1.9-5.6-3.8-7.7l-7.9-6.3c-1.5-3.8-4.5-7.6-1.9-12
	C175.085,221.181,180.385,220.681,182.885,223.481z"/>
<path fill="#FFFFFF" d="M245.085,216.681l-1.2,1.7L245.085,216.681z"/>
<path fill="#FFFFFF" d="M364.785,218.381c1.2,0.3,3.5-0.6,4.6,0.7c0.1-0.4,0.6-0.1,0.9-0.2l0.3,0.7l-17.1-0.2v-1.7
	C357.485,218.281,361.385,217.481,364.785,218.381z"/>
<path fill="#FFFFFF" d="M94.385,219.081c0.2,0.8,0.4,1.9,1.2,2c-1.2-0.1-3.2,1.9-3.4-0.5c-8.8,1-15.4,2.8-24.5,3.1
	c6.4-4.6,15.2-5,23.3-5.3C91.285,219.581,93.285,219.481,94.385,219.081z"/>
<polygon fill="#FFFFFF" points="351.585,220.781 351.385,218.381 351.585,220.081 "/>
<path fill="#FFFFFF" d="M344.186,284.681c-3.4,20-12.2,39.4-24.7,56.4c-8.6,12.1-20.9,20.9-34.8,23.5l0.2-2.7h0.2
	c-0.3-4.5,6-3.8,8.7-6.4c23.9-12.9,36.3-38.3,44.6-62.2c6.9-23.7,10.5-49.3,10.8-74.2
	C353.285,240.081,345.085,263.381,344.186,284.681z"/>
<path fill="#FFFFFF" d="M407.285,227.781c-4.7,0.3-10.4,2.6-12.7,6.7c-2,4.1-3.6,10.5-0.5,14.6c-3.4-0.4-4-5.2-6-7.9
	c-1.3,2,0.6,3.9,1,5.8c-2.9-1.6-3.3-4.7-4.4-7.7c-0.3,0-0.7,0.4-0.7,0.7l0.3,3.1c-2.1-1.5-2.6-4.1-2.7-6.2c-2-3.1-1.2-6.1-0.7-9.6
	c1.6-4.5,5.7-6.9,10.3-7.2C397.285,220.181,403.885,222.481,407.285,227.781z"/>
<path fill="#FFFFFF" d="M240.485,235.681c-0.6-1.4,0.2-2.5-1-3.6c-0.1-4.9,4.4-7.7,7.5-10.8
	C245.285,226.281,241.585,230.481,240.485,235.681z"/>
<path fill="#FFFFFF" d="M370.285,222.281l-16,0.7l-0.3-1.7C358.686,221.981,365.285,220.881,370.285,222.281z"/>
<path fill="#FFFFFF" d="M34.585,232.781h-1.4c0-0.3-0.4-0.5-0.5-0.7c0.7-0.7-0.3-1.3-0.5-1.9h-0.5c-0.4-2.5-0.1-4.5-1.2-6.7
	c0.7-0.5,0.3-1.8,1.5-1.7C32.485,225.581,33.585,229.181,34.585,232.781z"/>
<path fill="#FFFFFF" d="M173.085,226.781c-1.5,6-0.9,12.5-2.4,18.7c-0.9-0.8,0.6-1.2,0.2-2.1c-0.8-6.3,0.3-13.9,1-19.2
	C172.285,224.681,172.985,225.781,173.085,226.781z"/>
<path fill="#FFFFFF" d="M373.186,225.881c-5.6,0.4-12.2,0.1-18.7,0.2l-0.2-1.2c6.3-0.7,11.6-0.8,18-0.2L373.186,225.881z"/>
<path fill="#FFFFFF" d="M164.686,227.281c-1.2-0.2-0.3-1-0.3-1.7C164.885,225.981,164.585,226.781,164.686,227.281z"/>
<rect x="352.285" y="227.081" fill="#FFFFFF" width="0.3" height="1.9"/>
<path fill="#FFFFFF" d="M374.186,228.281l1.4,1.4c-6.6-0.4-13.9-0.2-20.9-0.2l-0.2-1.7
	C361.385,228.581,366.885,227.581,374.186,228.281z"/>
<path fill="#FFFFFF" d="M24.485,232.581l-0.9,0.5c-0.9-1.1,0.4-2.3,0.7-3.4l1.4-1.4C26.186,229.581,24.385,230.881,24.485,232.581z"
	/>
<path fill="#FFFFFF" d="M29.085,231.081c-0.7,0.3-1.5,0.5-2.2,0.8l1.5-3.4C29.485,229.081,28.885,229.881,29.085,231.081z"/>
<path fill="#FFFFFF" d="M413.285,232.581c-1.5-0.4-2.7-1.4-4.6-1c-1.5,0.4-2.1,2.1-2.4,3.4c-0.1,3.5,3,5.1,5.6,6.7
	c0.3,0.8,0.3,2.1,0,2.9c-2.3-4.9-8.2-4.8-12-7.9l-0.8,0.2c-0.5,3.4-4.1,5.8-3.1,9.6c2.9,1.1,3,3.4,5.8,4.8c-0.8,1.1-1.3-1.1-2.7-0.7
	c-3.4-2.5-5.8-6.2-4-10.6c0-3.1,2.2-6.3,5.2-8.1c2.8-1.3,5.8-2.6,9.2-1.7C410.686,231.181,412.485,231.081,413.285,232.581z"/>
<path fill="#FFFFFF" d="M21.585,230.181c-1.6,1.4,0.2,5.4-3.3,4.8C18.585,233.081,18.985,230.081,21.585,230.181z"/>
<path fill="#FFFFFF" d="M375.385,232.581c-7.5,0.1-12.5,0.9-20.4,0c-0.5-0.6-0.5-1.1,0-1.7
	C361.186,231.481,370.385,230.581,375.385,232.581z"/>
<path fill="#FFFFFF" d="M16.785,231.881c-1.7,1.2,0.1,4.8-2.8,4.8C13.785,235.081,14.785,232.381,16.785,231.881z"/>
<path fill="#FFFFFF" d="M12.485,233.281c-1.4,1.5-1,4.5-3.1,4.8C9.485,236.181,10.885,233.181,12.485,233.281z"/>
<path fill="#FFFFFF" d="M362.686,234.981c-3.2-0.1-5.3,0.1-8.2,0.7l0.2-1.7C356.585,234.681,359.985,234.681,362.686,234.981z"/>
<path fill="#FFFFFF" d="M6.285,239.281h-0.7c-0.8-1.6,0.2-3,0.9-4.3l1.7-0.7C7.485,235.381,6.686,237.781,6.285,239.281z"/>
<path fill="#FFFFFF" d="M415.885,237.081c0.8,0.8-0.5,1.5-0.2,2.4c-1.9-1.2-5.9-1.1-7-4
	C410.885,233.081,413.885,235.781,415.885,237.081z"/>
<path fill="#FFFFFF" d="M364.085,234.681c-0.2,0.5-0.6,0.2-1,0.3C363.485,234.481,363.686,235.081,364.085,234.681z"/>
<path fill="#FFFFFF" d="M375.085,235.481c-2.2,0.2-7-0.3-10.5-0.5l0.2-0.3C367.985,234.881,371.186,234.681,375.085,235.481z"/>
<path d="M59.085,239.781c-0.2,0.8-0.5,1.8-1.5,2.1c-1.6,0.2-2.4-1.7-2.8-2.8c-0.3-1.5-0.6-2.6,0.2-3.9
	C57.085,235.781,58.785,237.581,59.085,239.781z"/>
<path fill="#FFFFFF" d="M3.385,235.881c-0.1,1.1-0.5,2.6-0.7,3.9C1.686,238.781,2.285,236.681,3.385,235.881z"/>
<path fill="#FFFFFF" d="M376.585,237.881l-22.1,0.2v-1C362.285,236.281,368.585,237.581,376.585,237.881z"/>
<path fill="#FFFFFF" d="M184.785,244.581l-5.2,9.8c-2,0.1-3.1-1.9-4.6-2.9c1.9-3.6,2.6-7.7,4.3-11.5c0.2-0.9-0.4-2.2,0.5-2.9
	C181.885,238.981,187.285,241.581,184.785,244.581z"/>
<path fill="#FFFFFF" d="M52.385,242.881c0.8,8.9-0.6,16.6,0.2,25l0.7,16.8c-2.4,0.2-4.5,2-6,4c-0.7,1.3,0.7,3.8-1.2,4.1
	c0.7-5.1-0.4-11.8-0.7-17.7c-1.4-11.2-1.4-23.8-1-34.8c1.5-1.3,3.9-0.4,5.3-1.7L52.385,242.881z"/>
<path fill="#FFFFFF" d="M421.686,240.281v0.7c-1.7,0.3-2.8-0.4-3.8-1.7C418.985,237.681,420.785,239.081,421.686,240.281z"/>
<path fill="#FFFFFF" d="M376.785,240.281v0.4c-7.3-0.2-15.5-0.5-22.3,0.3v-1.5C361.985,240.381,369.985,239.881,376.785,240.281z"/>
<path fill="#FFFFFF" d="M407.485,242.381c3.9,1.9-1.1,4-1.2,6.3c-3.1-0.1-5.3-2.5-8.1-3.4c1.3-1.6,1.6-3.7,2.4-5.5
	C403.186,239.981,404.885,242.281,407.485,242.381z"/>
<path fill="#FFFFFF" d="M167.585,243.881c-1.3-0.7,0.3-1.8,0-2.9V243.881z"/>
<path d="M110.885,258.981c1,3.5,3.4,7.8,0.7,11.3c-0.9,0.9-2.4,1.2-3.6,0.7c-5.8-7.5-8.8-17.2-7.4-27.4c0.8-2.2,2.7-0.9,4.1-0.2
	C108.485,247.581,108.885,253.781,110.885,258.981z"/>
<path fill="#FFFFFF" d="M376.785,243.381v0.5c-6.8-0.4-15.5-0.4-22.5,0v-1C361.285,241.981,369.285,242.481,376.785,243.381z"/>
<path d="M192.485,243.381c0.3,2.3-2.3,1.5-3.3,2.6c-0.7-0.2-0.7-1.1,0-1.4C190.186,243.981,191.485,242.681,192.485,243.381z"/>
<path fill="#FFFFFF" d="M343.485,307.881c-7,18.7-12.5,39.2-29.6,52.4c-9,7.7-19.5,12.9-30.9,15.3c0.2-2.2,0.5-4.2,0.7-6.7
	c2.3-0.9,4.8-1.1,7.2-1.7c33.5-8.5,45-45.3,54-73.9c2.8-16.3,4.6-34,7.2-50.4C351.985,264.781,348.785,287.281,343.485,307.881z"/>
<path d="M406.585,244.281c0.5,1.8-1.1,2-1.9,3.2c-1.6,0.4-1.7-1.5-1.2-2.4C404.186,243.981,406.585,241.181,406.585,244.281z"/>
<path fill="#FFFFFF" d="M380.186,245.481c1.9,2.2,4.3,4.1,6.7,5.3c0,9.8,0.3,20.6-1.2,29.8c0.7,20.9-0.1,40-1.2,61.4l0.7,13.9
	c-20.7,2.5-43.1,0.3-64.1,1l6.8-7.9c17-2.6,33.5-1.2,50.1-1.2l1-1c-0.8-20.7-1.5-40.5-1.2-61.7c1.4-10.3,0.3-25.3,0.9-35v-7
	C379.385,243.381,379.686,244.781,380.186,245.481z"/>
<path d="M196.385,245.781c-2.5-0.8-3,2.4-5.1,1.7c0-2.2,2.9-2.6,4.6-3.4C196.585,244.281,197.085,245.181,196.385,245.781z"/>
<path fill="#FFFFFF" d="M103.985,246.681c3.4,6.4,6.1,13.6,6.4,20.7c-1,0,0.3,0.6-0.4,0.9l-1.2,0.5c-5.4-6.6-6.5-15.1-6.5-24
	C103.985,243.481,102.985,246.081,103.985,246.681z"/>
<polygon fill="#FFFFFF" points="54.785,245.481 54.785,244.781 56.385,245.481 "/>
<path fill="#FFFFFF" d="M376.585,246.281v0.4c-7.5,0-14.1,0.2-22.3-0.2l0.4-1C361.785,246.381,369.186,244.781,376.585,246.281z"/>
<path fill="#FFFFFF" d="M345.085,245.981l-0.2,1.7L345.085,245.981z"/>
<path fill="#FFFFFF" d="M419.785,250.081c-1,2.3-3,4.1-4.6,6c-2.2-2.1-5.1-2.4-7.2-4.8l2.7-5.3L419.785,250.081z"/>
<path d="M200.186,248.181c-2.1-0.7-5.2,3.6-5.3,0c1.4-0.9,3.5-0.1,4.6-1.7C200.085,246.681,200.285,247.481,200.186,248.181z"/>
<path fill="#FFFFFF" d="M57.885,247.881c-0.9,0-1.9,0.3-2.9,0.5C54.785,247.781,56.885,247.381,57.885,247.881z"/>
<path fill="#FFFFFF" d="M306.985,343.881c-6.1,6.5-13.5,9.9-20.9,13.2c0.1-6.2,8-7.1,11.8-11.2c13.3-11.2,19.2-27.8,27.8-41.8
	c10.1-17.7,14.4-36.3,19.2-55.9C340.885,282.481,332.186,318.281,306.985,343.881z"/>
<path fill="#FFFFFF" d="M375.385,249.081l-20.9,0.8l-0.2-1.5C361.985,248.981,367.686,248.181,375.385,249.081z"/>
<path fill="#FFFFFF" d="M71.285,249.581c-3.2,0.1-6.9-0.2-10.5,0.3C63.285,249.381,67.585,248.581,71.285,249.581z"/>
<path d="M414.686,253.481c-0.3,0.3-0.9,0.2-1.4,0.2c-0.5-1.7-0.3-4.3,1.9-4.6C418.285,249.781,414.485,251.881,414.686,253.481z"/>
<path d="M201.585,250.781c-0.9,0-2.1,1.1-2.6,0v-0.7C200.385,251.081,202.285,247.881,201.585,250.781z"/>
<path fill="#FFFFFF" d="M376.285,252.481c-7.2,0.2-15-0.4-21.6,0.5c-0.3-0.3-0.3-0.6-0.4-1l0.7-0.5c7.8,0.4,13.6-0.7,21.3,0V252.481
	z"/>
<path fill="#FFFFFF" d="M195.186,254.681c0.6,3.6-2.8,6.2-3.6,9.8c-1.3-3.4-10.7-4.5-4.8-9.1c0.4-1.5,0.7-3.5,2.4-4.1
	C191.085,252.381,193.686,252.681,195.186,254.681z"/>
<polygon fill="#FFFFFF" points="61.186,252.281 65.585,251.781 66.985,251.981 "/>
<path fill="#FFFFFF" d="M60.785,252.281c-1.3,0.4-4.5,0.1-5.8,0.2C56.686,252.981,58.285,251.481,60.785,252.281z"/>
<path fill="#FFFFFF" d="M367.885,254.181v0.2l6.8,0.3l-20.4,0.7c-0.4-0.9,0.5-1,0.9-1.2
	C359.186,254.881,364.085,254.381,367.885,254.181z"/>
<path fill="#FFFFFF" d="M63.585,254.681c-2.5,0.1-5.2,0.6-8.4,0.9v-0.7C58.585,254.781,60.785,253.981,63.585,254.681z"/>
<path fill="#FFFFFF" d="M73.985,267.381c0.9,4,2.7,7.7,5.2,11l0.3,1.9c-1-5-6.3,1-7.9-3.3c-1.9-0.6-3.6,1.6-5.6,0.2
	c-0.8-0.2-1.4,0.3-2.1,0.5c-0.5-5.6,2.5-10.2,3.8-15.4c1.7-2.3,2.8-5.4,5.1-7.2C73.285,258.181,72.585,263.081,73.985,267.381z"/>
<path fill="#FFFFFF" d="M55.186,258.681l-0.2-0.9c4.6-0.1,9.6-1.8,13.4-1L55.186,258.681z"/>
<path fill="#FFFFFF" d="M376.285,257.081c0,0.2,0.1,0.3,0.3,0.4c-7.8,0.6-15.1,0.9-22.8,0.8l0.2-1.5L376.285,257.081z"/>
<path fill="#FFFFFF" d="M208.585,258.481c-0.5,2.4-2.4,4.3-2.4,7c-2.8,1-3.9,5.8-7.4,4.3c0.3-3.2,3.9-6.3,6-9.4
	C206.186,259.581,206.686,256.781,208.585,258.481z"/>
<path fill="#FFFFFF" d="M215.085,258.981c-1.9,2.1-3.2,3.1-5.8,4.1c0.6-1.3,0.8-3.3,1.7-3.9
	C212.385,259.181,213.885,259.381,215.085,258.981z"/>
<path fill="#FFFFFF" d="M66.785,259.881c-2.3,0.5-4.8,0.2-7.2,0.3c2.8-0.6,4.4-0.3,7.2-1V259.881z"/>
<path fill="#FFFFFF" d="M371.285,260.381c-5.5,0.8-12.3,0.5-17.3,0.5l-0.2-0.5C359.485,260.781,365.485,259.681,371.285,260.381z"/>
<path fill="#FFFFFF" d="M54.985,260.881c0.7-1,2.1-0.1,2.9-0.7l0.2,0.2L54.985,260.881z"/>
<path fill="#FFFFFF" d="M376.285,262.781l-0.7,0.5c-7.3,0.1-14.1,0.9-22.1,0.2v-0.2
	C362.186,263.481,368.285,261.881,376.285,262.781z"/>
<path fill="#FFFFFF" d="M65.085,262.581c-3.1,0.6-7.6,1.9-10.3,0.7c0.9-1,2.7-0.1,3.8-0.7H65.085z"/>
<path fill="#FFFFFF" d="M376.285,266.181c-8.4,1-15.2-0.1-22.8,0.9c-0.9-0.3,0-0.9,0-1.4c8.7,0.2,14.8-0.5,22.8-0.2V266.181z"/>
<path fill="#FFFFFF" d="M61.485,265.681h0.9H61.485z"/>
<path fill="#FFFFFF" d="M58.585,266.381l-3.6,0.3c0.3-1.4,2.4-0.5,3.6-0.8V266.381z"/>
<path fill="#FFFFFF" d="M61.186,265.881c-0.4,0.5-1.1,0.2-1.6,0.3C59.985,265.781,60.686,265.981,61.186,265.881z"/>
<path fill="#FFFFFF" d="M54.985,270.281c-0.8-0.7,0.5-1.5,0.2-1.7c2.5,0.5,4.9,0.1,7.5-0.5
	C61.885,270.281,57.686,269.881,54.985,270.281z"/>
<path fill="#FFFFFF" d="M376.285,269.081v0.7c-7.1,0.4-17.1,0.2-23.5,0.2l0.3-1.4C359.585,268.781,369.485,268.181,376.285,269.081z
	"/>
<path fill="#FFFFFF" d="M374.885,272.381c-7.1,0.7-15.3,0.7-22.6,1l0.3-1.9C360.485,272.881,367.985,271.781,374.885,272.381z"/>
<path fill="#FFFFFF" d="M61.686,272.381l-6.5,1l-0.2-0.7c2-0.2,4.4-0.7,6.7-0.8V272.381z"/>
<path fill="#FFFFFF" d="M305.785,277.681h-2.7l2.4-3.6l0.3,0.2l1.4-1.9C306.785,274.181,306.186,276.181,305.785,277.681z"/>
<path fill="#FFFFFF" d="M376.285,275.981c-7.3,1.1-16.5,0.3-24.4,0.7c-0.4-3.3,3.8-0.6,5.5-1.4c5.8-0.6,13.5-0.6,18.7-0.2
	L376.285,275.981z"/>
<path fill="#FFFFFF" d="M60.785,275.081c-0.1,2.1-3.5,0.9-5.1,1.6c-0.6-2,2.5-0.8,3.6-1.6H60.785z"/>
<path fill="#FFFFFF" d="M371.085,278.881c-6.4,0.7-12.8,1-19.5,1.2v-1.4C358.285,279.081,364.085,277.781,371.085,278.881z"/>
<polygon fill="#FFFFFF" points="371.485,279.081 372.686,278.681 375.585,278.881 "/>
<path fill="#FFFFFF" d="M73.485,281.981c0.4-1.6,1.7-1.7,3.1-1.9c0,0.6-0.1,2.2,1,2.9c1.7,0.2,3.8-1.3,4,1.4
	c-0.2,1.1,0.3,2.1,1.2,2.4c1.7-1.3,2.6,1.4,4.1,0.5c0.8,1.2-0.6,3.5,1.2,4.1c1.5,0.3,1.6-1.3,3.1-1c0.8,1.4-0.6,2.9,1.2,3.9
	c1.6,0.2,2.6-1.4,4.1-0.5c0.1,1-1,3.5,0.7,4.1c1.5,0,3.1-1.1,4.4,0c-0.2,1.4-1,2.8,0.7,3.8c1.3-0.1,2.5,0.1,3.6,0.7
	c-0.3,1.5-1.5,3.7,0.9,4.1c0.7-0.4,1.5-0.2,1.7-0.7h0.7c0.9,1.5-1.8,3.3,0.5,4.5h4.6c0.8,1.6-1.6,3.3,0,4.6c1.7,0.7,3.2-0.4,4.5,0.7
	c-0.2,1.2-0.8,4.1,1.5,4.3c0.9-0.1,1.6-0.6,2.6-0.4l1,1.4c0.1-0.3,0.4-0.2,0.7-0.2c1.3,0.8,0.4,2.7,1.7,3.3l1.9-0.7
	c0.3,1.2-0.5,2.2-0.2,3.1c1.4,2.5,2.6,0.1,4.3,1.7l1.7-0.5c-0.1,1.1-0.9,2.3-0.3,3.4c1.9,2.1,4.4,0.3,6.5,1.9
	c-1.2,1.8,1.2,2.4,0.2,4.3c1.5,0.5,3.7,0.2,4.8,0.3c-0.4,2,2.3,1.3,1.5,3.3c0.5,1.4,2.1,1.7,3.3,1.2c1,0.2,0.9,2.3,2.2,2.2
	c-0.4,0.3-0.2,0.9-0.2,1.4c1.5,1.2,3.5,0.7,5.2,1c0,0.9-1,2.1,0,2.9c1.1,1.6,2.5-0.1,3.4,0.7c0,1.1-1.2,3.2,0.7,3.8
	c1.6,0.3,2.7-0.5,4.3-0.2c0.7,0.8-0.5,1.5-0.4,2.4c-2.8,1.8-4.7-4.1-7.2-0.7c-1.3,1.8-2.9-1.2-4.8-0.5c-1.6,2.9-5.9,2.8-7,6.5
	c-2.7,0.8-5.1,3.3-6,6c0.9,3.6-3.5,4.4-3.6,7.6c0.1,3.9,0.2,8.9,3.4,12l0.2,1.2c-1.3,0.8-2.7-1-3.1-2.1c0.2-0.6-0.6-1.1-1-1.2
	c-1.3,1.2-2.6-0.5-3.8-1c-0.9-4.3-6.6-0.2-6.3-5c-0.6-0.9-1-0.9-1.9-0.5l-0.7,0.7c-2-0.5-0.1-3-1.7-3.8c-4.1,2.1-3.9-3.7-6.2-4.8
	c-0.5,0.7-1.2,0.8-1.9,0.7c-1.4-1.8-0.1-5.4-3.4-5.5c-1.8,0-3.3-1.6-4.1-3.1c-0.3-0.9-0.2-1.9-1.2-2.4c-1.8,0-3.6-1.2-4.3-2.9
	c-0.3-1-0.4-2.1-1.2-2.9c-1.6-0.3-2.1,2-3.6,0.5c-2.7-2.1-1.1-7.4-6-6.7c-2.2-0.8-1.4-5.5-4.3-3.9v0.5c-3.5,0.1-2.9-5.7-6-4.1
	c-0.3-0.5-1.2-1.8-2.2-1.7c-0.6-0.9-0.3-2.3-0.7-3.3c-1.5-0.5-3.5-1.3-3.8-3.1c-0.6-1.4,1.1-2.7-0.5-3.6c-2.2,0-3.9,0.1-4.8-2
	c-0.2-0.8-0.2-1.9-1.2-2.1c-1.2,1.3-2.6-0.5-3.6-0.3c-2.3-1.4-0.4-6.3-4.6-5.2c-0.1-1.1,0.5-3.5-1.4-3.6c-0.2,1-1.5,1.1-2.2,0.7
	c-1.9-1.2-0.5-3.9-2.6-4.8c-2.8,1.4,0.1,3.8,0.2,5.7c-1.5-0.1-3.4-0.3-3.8-2.1c-0.5-0.8-0.2-1.8-0.3-2.7c1.1-0.1,2-1.4,1.2-2.4
	c-1.1-1.6-3.8,0.6-3.6-2.4c-1.4-3.6,3.9-2.6,2.7-6.2c-3.9-0.6-0.9-4.5-0.7-6.5c0.5-0.9,1.7-0.1,2.4-0.7c0.5-1.6-1.1-2.9-0.5-4.8
	c1.2-1.7,3.2-2.6,5.3-2.9c0.7,0.2,1.2,1.6,2.1,0.7c1.2-0.8-0.4-2,0.5-3.1c1.3-3.2,5.7,0.5,5.8-3.1c0.2-1.3,2-1.5,2.8-1.7
	c1.7-0.5,1.5,1.8,2.9,1.7c0.9-0.9,1-3.1,2.9-1.9C71.585,280.581,72.085,282.081,73.485,281.981z"/>
<path fill="#FFFFFF" d="M320.686,282.981c0.1,11-8.7,18.9-14.4,27.8c-7.2,10.2-14.4,20.3-18.5,31.7c-6.4,13.5-7.1,29.6-11.3,43.7
	c-2.3,2.6-4.3,5.9-7.9,6.9c-5.6-0.7-6.9-7-8.2-11.5c-0.9-2.5,1.1-7.4-1.7-9.8c-4.1-6.7-12.2-6.6-16-13l-1.2-0.7
	c-5.3-5.7-8.9-13.3-8-20.9c13.7-6.7,25.4-17.3,37.2-26.1c0-0.5,0.5-0.7,0.8-1c-8.2,11.6-12.5,25.5-14.9,39.8c-0.5,3.7,2.2,7.2,5,9.2
	c5,1.7,8.2-3.4,10.8-6.5c7.1-13.4,10.8-27.7,18.7-41.3c2-4.2,3.5-8.1,3.6-12.7c-0.4-2.1-2.5-2.6-4.3-3.1l-3.1,0.7
	c4.5-5,9.6-11.4,14.2-16.8C307.285,281.181,316.085,276.181,320.686,282.981z"/>
<path fill="#FFFFFF" d="M60.485,279.881c-0.3,0.6-1.7,0.6-2.6,0.9c-0.5,0.4-1.1,1.5-1.9,1.5
	C55.085,279.481,58.985,280.681,60.485,279.881z"/>
<path fill="#FFFFFF" d="M376.085,281.781c-0.3,0.1-0.2,0.4-0.2,0.7l-24.3,0.5c-0.3-0.3-0.3-0.6-0.5-1c2.9-0.6,7.3,0.2,9.9-0.5
	l0.5,0.5l0.2-0.2C366.285,281.581,371.385,280.781,376.085,281.781z"/>
<path fill="#FFFFFF" d="M154.585,283.881c-7.5,7.2-15.5,15.1-23,23.1v-1.9c6.7-7.6,14.3-15.9,21.8-22.4L154.585,283.881z"/>
<path fill="#FFFFFF" d="M375.585,285.081c-7.8,0.5-17.1,0.3-24.9,0l0.2-1.2C359.285,285.481,367.985,283.381,375.585,285.081z"/>
<path fill="#FFFFFF" d="M131.985,300.981c0.1-5.2,5.5-8.2,8.9-11.5c2.6-1.4,4.5-4.1,7.2-5.1L131.985,300.981z"/>
<path fill="#FFFFFF" d="M154.385,289.481l-23.1,24.4c-0.4-1.3-0.3-3,0.7-4c7.7-7.9,14.3-15.9,23.1-23.6
	C156.885,287.081,154.885,288.481,154.385,289.481z"/>
<path fill="#FFFFFF" d="M367.485,287.781l-17.3,0.9l0.5-1.9C357.285,287.581,361.385,287.281,367.485,287.781z"/>
<path fill="#FFFFFF" d="M133.485,293.281c0.5-2.6,3-3.3,4.8-4.6C137.385,290.281,135.085,291.781,133.485,293.281z"/>
<path fill="#FFFFFF" d="M156.785,293.081c-9,8-15.8,17.2-24.3,25.9c-1-0.6-0.6-2,0-2.9c7.5-8.9,16.4-17.4,23.8-26.4
	C156.285,290.881,157.285,291.981,156.785,293.081z"/>
<path fill="#FFFFFF" d="M375.585,289.681c0.5,0.3,0.2,1,0.3,1.4c-8.4,0.1-17.4,0.4-26,0.3c-0.5-0.4,0-1.2,0.5-1.2
	C358.985,290.381,366.585,289.881,375.585,289.681z"/>
<path fill="#FFFFFF" d="M375.885,293.781v0.5l-26.7-0.3l0.3-0.9C358.385,293.581,366.186,292.781,375.885,293.781z"/>
<path fill="#FFFFFF" d="M157.985,298.781c-8.7,9.3-17.2,18.1-26.2,25.9l0.2-1.6c8.4-9.2,16.1-19.3,25.5-28.1
	C157.985,295.881,158.485,297.481,157.985,298.781z"/>
<path fill="#FFFFFF" d="M375.885,296.881c-9.3,0.5-17.3-0.2-27.2,0.7c-0.5-0.7-0.1-1.7,0.8-1.9
	C358.385,296.481,366.285,296.081,375.885,296.881z"/>
<path fill="#FFFFFF" d="M375.885,299.481v0.3c-8.6,1.1-20.3-0.2-28.1,0.2l0.2-0.7C357.186,298.981,367.186,298.681,375.885,299.481z
	"/>
<path fill="#FFFFFF" d="M158.686,303.381c-7.1,7.2-14.2,15.9-22.1,22.5c-0.6,0.9-0.9-0.5-1.4-0.4c7.6-8,15.8-16.3,23.5-24.3V303.381
	z"/>
<path fill="#FFFFFF" d="M375.385,302.681c-9.1,0.4-17.8-0.6-28.1,0.4v-0.7C356.186,302.081,365.985,301.881,375.385,302.681z"/>
<path fill="#FFFFFF" d="M119.785,304.281c0,1.1-1.4,0.7-2.2,1h-0.7C117.985,305.281,118.686,304.381,119.785,304.281z"/>
<path fill="#FFFFFF" d="M288.285,304.581c-2.5,7.9-9.2,14-15.6,18.9l-4.8,1.7c3.5-7.4,9.3-13.7,15.6-19.9
	C285.085,304.281,286.785,304.381,288.285,304.581z"/>
<path fill="#FFFFFF" d="M375.585,305.481v0.5c-10.1,1-19.3-0.9-29-0.2l0.2-0.7C355.385,304.881,367.085,304.281,375.585,305.481z"/>
<polygon fill="#FFFFFF" points="112.385,306.281 112.085,305.481 114.785,305.781 "/>
<path fill="#FFFFFF" d="M159.885,309.581l-19.7,18.5l-1.9,0.5c1.3-4.1,6.7-6.5,9.3-10.1c3.9-4.8,8.3-8.3,11.6-13
	C159.785,306.781,159.985,308.081,159.885,309.581z"/>
<path fill="#FFFFFF" d="M362.686,308.381c-5.2,0.4-11.7,0.1-17.1,1.2c0.5-0.9-0.1-2,1-2.4
	C351.785,307.981,357.485,307.681,362.686,308.381z"/>
<path fill="#FFFFFF" d="M370.085,308.681h0.7H370.085z"/>
<path fill="#FFFFFF" d="M371.285,308.681h3.1H371.285z"/>
<path fill="#FFFFFF" d="M120.285,309.881c-0.8,0.7-2.2,0.5-3.1,0.4v-0.4C118.485,309.881,118.885,309.881,120.285,309.881z"/>
<path fill="#FFFFFF" d="M375.085,311.081l-0.7,0.7c-10.2-0.5-18.9-0.3-29.7,0.7l0.2-1.2
	C355.085,310.081,364.485,310.381,375.085,311.081z"/>
<path fill="#FFFFFF" d="M141.885,330.681l-0.3-0.2c5.4-6.5,12.3-12.3,18.5-18.5C155.885,318.481,147.885,324.881,141.885,330.681z"
	/>
<path fill="#FFFFFF" d="M120.985,313.181v0.3c-1,0.1-1.4-0.1-1.9-1C119.785,312.581,121.385,312.181,120.985,313.181z"/>
<path fill="#FFFFFF" d="M375.385,314.181c-10.7,1.3-20.7-0.6-31.7,0.7c0.2-0.5,0.6-0.8,1-1.2c3.9,0.6,8.9-0.2,13.4-0.2
	C363.385,313.481,369.785,313.481,375.385,314.181z"/>
<path fill="#FFFFFF" d="M160.785,317.481c-4.7,5.4-10.5,10.7-16,14.7c4.3-5.6,10.8-10.9,15.6-17.1
	C161.186,315.381,160.686,316.681,160.785,317.481z"/>
<path fill="#FFFFFF" d="M267.585,333.381l-3.6,0.9c0.7-2.1,0.8-5.9,4.1-6.4c6.4-2.3,13.1-6,17.3-11.6
	C284.785,324.681,275.385,330.981,267.585,333.381z"/>
<path fill="#FFFFFF" d="M359.085,316.581c5.1-0.1,10.4,0.7,16,0l0.5,0.5c-10.8,1.5-22.3-0.2-32.9,1.4c-0.1-0.6,0.2-1.6,0.8-2.2
	C348.485,317.481,354.885,316.081,359.085,316.581z"/>
<path fill="#FFFFFF" d="M52.785,321.581l1.7,2.2c-0.3,8.2-1.6,17.5,0.3,25.2l1.6,1.7c9.6-0.3,18.3-0.6,27.4,0.2
	c2,2.4,5.5,0.5,5.5,4.6c1.3,1.2,2.5,2.8,4.3,2.8c-14.1,0.8-31.5,0.8-45.1,0c-1.5-12.6-1.1-27-1.2-40.3
	C48.585,321.181,53.285,317.281,52.785,321.581z"/>
<path fill="#FFFFFF" d="M56.686,321.081c-0.5,0.2-1.1,0.7-1.7,0c-0.3-0.3-0.6-1.7,0.2-2.1
	C56.285,318.981,56.186,320.381,56.686,321.081z"/>
<path fill="#FFFFFF" d="M375.885,319.881c-0.6,0.7-1.8,0.7-2.7,1c-10.5,0-21.6-0.1-31.9,1c-0.4-3.8,3.3-1.4,4.8-1.7
	C356.285,319.381,365.186,319.681,375.885,319.881z"/>
<path fill="#FFFFFF" d="M161.285,322.281c-4.4,4.6-9.8,8.7-14.1,12.8l-0.8-0.3c4.3-4.4,10.1-9.6,14.4-14.6
	C161.686,319.881,161.085,321.581,161.285,322.281z"/>
<path fill="#FFFFFF" d="M373.885,323.281c-11.5,1.6-22.7-0.3-34,1.7c-0.5-3.2,4.1-1.1,5.7-1.7
	C354.186,323.281,363.785,322.181,373.885,323.281z"/>
<path fill="#FFFFFF" d="M161.785,326.381c-3.1,4.5-8.1,8.4-12.2,12.3c-1.1-3.4,2.9-4.8,4.8-7l6.9-6.7L161.785,326.381z"/>
<path fill="#FFFFFF" d="M376.085,326.181c-13.1,2-24.6,0.3-37.2,1.2l0.2-1c12-0.3,23.5-0.3,36.8-0.9L376.085,326.181z"/>
<path fill="#FFFFFF" d="M67.186,330.281c-1.6,1.1-2.4-0.9-3.1-2l0.3-0.9C65.985,326.681,65.885,329.481,67.186,330.281z"/>
<path fill="#FFFFFF" d="M368.686,329.081c2.4,0.5,5.6-1.2,7.6,0.4c0.6,1.8-1.7,0.5-1.9,1.2c-11.6,0.4-24-0.7-36.9,0
	c-0.6-3.4,3.1-1.1,4.3-1.4C350.686,328.481,359.385,329.881,368.686,329.081z"/>
<path fill="#FFFFFF" d="M162.285,330.681v0.8c-3.4,3.4-6.6,5.6-9.6,8.4h-0.7c3.1-2.7,7.2-7,9.6-10.4
	C162.285,329.281,162.186,330.281,162.285,330.681z"/>
<path fill="#FFFFFF" d="M274.285,335.981c-2.1,0.6-5.1,0.9-7.9,0.7c4.6-1.4,8.9-4.3,13.2-6.9
	C279.285,332.481,277.585,335.581,274.285,335.981z"/>
<path fill="#FFFFFF" d="M62.885,331.181l-6-0.2c1.7-0.4,3.4-0.2,5.5-0.3L62.885,331.181z"/>
<path fill="#FFFFFF" d="M71.785,335.281c-1.6,1.1-2.6-0.7-2.9-1.9l1.2-2.4C70.985,332.081,70.186,333.981,71.785,335.281z"/>
<path fill="#FFFFFF" d="M177.885,342.681c4.5,4.9,14.4,7.2,14.6,15.6c-0.1,9.1-6.5,16.6-11.3,23.6c-3.7,4-8.9,6.4-14.4,6
	c-0.5-1.9-1.9-0.5-3.1-1.2c-1.8-2.2-5.9-4.1-5-7.5l1.7-2.1c1.3,1.5,3.6,4.3,6.4,4.5c9.9,0.6,14.6-9.8,18.5-17c3.9-9.3-8-12-12-18.3
	c-4.3-3.5-10-8.3-8.4-15.1C169.785,333.781,173.585,339.281,177.885,342.681z"/>
<path fill="#FFFFFF" d="M363.385,332.881l5.5-0.2v0.2h7.2l0.5,0.7c-14.4,0.1-27-0.2-40.3,0.3c-0.2-0.8,0.1-1.3,0.7-1.7
	C345.186,332.381,354.885,332.681,363.385,332.881z"/>
<polygon fill="#FFFFFF" points="61.985,333.381 56.686,333.881 56.686,333.081 "/>
<path fill="#FFFFFF" d="M162.485,333.881c0.3,3.5-5,5.8-7.2,7.9c-0.7-1.2,0.9-1.4,1.2-2.4
	C158.485,337.881,160.585,335.281,162.485,333.881z"/>
<path d="M247.885,335.781c0.8,1.4,1.7,3.8,0.3,5.3c-1.9,1.7-4.3,2.7-7,1.9c-1.9-1.1-1.4-3.6-1.2-5.3c0.8-1.7,2.4-2.8,4.1-3.6
	C245.686,333.881,246.885,335.181,247.885,335.781z"/>
<path fill="#FFFFFF" d="M376.585,336.281v0.4c-12.8,0.6-23.8-0.4-36,0.3c-0.3-0.2-0.7-0.7-1-0.3l-5,0.8c-0.1-0.8,0.2-1.3,0.7-1.7
	C348.485,335.181,362.686,335.681,376.585,336.281z"/>
<path fill="#FFFFFF" d="M67.485,336.281l-11.5,0.9l0.4-1.4C60.585,335.581,63.186,336.081,67.485,336.281z"/>
<path fill="#FFFFFF" d="M246.985,337.881c0.4,1.9-1.4,3.1-2.9,3.4l-2.2-0.2c-0.6-1.3,0.1-3,1-4.1
	C244.186,335.581,246.585,335.881,246.985,337.881z"/>
<path fill="#FFFFFF" d="M276.985,337.181c-1.6,2.7-1.4,6.6-5.3,7.2c-3.8,1.6-6.7,0.1-10.3-0.2c-0.5-1.8,0.3-3.6,0.7-5.5
	c4.7,0.1,10.4-0.1,14.2-1.7L276.985,337.181z"/>
<path fill="#FFFFFF" d="M74.885,338.881c-0.3,0.3-0.9-1.1-0.7-1.4C75.186,337.381,74.285,338.581,74.885,338.881z"/>
<polygon fill="#FFFFFF" points="71.585,339.081 71.985,338.381 71.985,339.081 "/>
<path fill="#FFFFFF" d="M70.085,339.081l-13.7,1v-0.7C60.686,339.281,65.585,337.981,70.085,339.081z"/>
<path fill="#FFFFFF" d="M162.785,338.881c-1.6,1.4-3.8,4-4.8,5.3C157.985,341.881,160.985,340.381,162.785,338.881z"/>
<path fill="#FFFFFF" d="M375.385,340.781c-7.6,0.7-14.5-0.3-22.8,0c-6-0.9-12.7-0.2-18.3-0.2
	C349.585,337.781,361.085,340.681,375.385,340.781z"/>
<path fill="#FFFFFF" d="M229.186,345.081c0.7,3.1,1.4,6.1,3.1,8.7c-1,0.1-2.3-0.7-3.3-1.5c-2.3-3-5.7-6-7.4-9.6
	c1.4-0.7,2.9-1.4,4.5-1.6L229.186,345.081z"/>
<path fill="#FFFFFF" d="M75.385,342.281l-11-0.5C67.885,341.581,72.485,340.981,75.385,342.281z"/>
<path fill="#FFFFFF" d="M162.985,342.981c-0.4,2-2.1,3-3.1,4.5c-0.1-2.2,1.7-4.1,2.9-5.5L162.985,342.981z"/>
<path fill="#FFFFFF" d="M364.785,343.181h1.2c-9.2-0.1-24.5,0.2-34.3-0.2l0.5-1C342.485,342.481,354.285,342.581,364.785,343.181z"
	/>
<path fill="#FFFFFF" d="M366.485,343.181l2.6,0.3L366.485,343.181z"/>
<path fill="#FFFFFF" d="M80.885,344.881c-0.4-0.3-1.1-0.3-1.2-1l0.3-0.4C80.785,342.981,80.585,344.381,80.885,344.881z"/>
<path fill="#FFFFFF" d="M228.985,356.381c6.9,4.9,14.1,8.9,21.6,12.3l2.1,3.3c-15.3-2.3-27.2-14.2-34.5-28.1l0.2-0.4
	C221.585,347.681,225.585,352.281,228.985,356.381z"/>
<path fill="#FFFFFF" d="M77.785,344.881l0.2,0.7c-6.9-0.7-14.5-0.7-21.1-0.5c-0.5-0.8,0.1-1,0.7-1.4
	C64.385,344.781,72.085,343.381,77.785,344.881z"/>
<path fill="#FFFFFF" d="M218.686,347.781c4.2,7.1,8.9,14.6,16.8,18.9c4.9,4.7,11.5,6.2,18,7.7c0.3-0.4,0.9-0.1,1.2-0.7
	c1.2,1.5,1.6,3.5,1.4,5.3c-8.9,0.8-16.6-4.3-24.2-7.9c-9.6-6.8-15-16.5-20.2-25.7c1.8-0.2,3.4-1.7,5.1-1.5L218.686,347.781z"/>
<path fill="#FFFFFF" d="M358.085,345.381c-9.5,0.8-18.8-0.7-28.3,0.9c-0.1-0.9,1-1.2,1.7-1.4
	C339.885,345.381,350.186,344.881,358.085,345.381z"/>
<path fill="#FFFFFF" d="M359.485,345.381h-0.9c0.1-0.5,0.6-0.2,0.9-0.3V345.381z"/>
<path fill="#FFFFFF" d="M165.885,349.481c-0.5-0.9-0.2-2.1-0.3-3.2c1.3-0.2,2.1,2,3.2,2.9L165.885,349.481z"/>
<path fill="#FFFFFF" d="M207.385,348.981l-1,0.7l-16-0.2l-1.5-1.2c5.5-0.3,11.4-1.3,16.6-2
	C205.885,347.281,206.485,348.181,207.385,348.981z"/>
<path fill="#FFFFFF" d="M61.686,347.281h-4.3C58.686,346.881,60.385,346.881,61.686,347.281z"/>
<path fill="#FFFFFF" d="M88.085,349.681c-0.4,0.1,0,0.6-0.5,0.5c-1-0.3-1.6-2.1-3.1-2.2l-0.2-0.7c1.2-0.5,1.8,0.2,2.6,0.7
	C87.186,348.681,87.285,349.481,88.085,349.681z"/>
<path fill="#FFFFFF" d="M272.385,347.481c-1,2.4-2.1,5.9-5.3,6c-2.5,0.2-5.3,0.9-7.4,0c0-1.6-0.1-3.8,0.7-5.2
	C264.285,349.981,268.186,347.881,272.385,347.481z"/>
<path fill="#FFFFFF" d="M93.385,355.881c-1.5-0.2-2.6-1.8-3.1-3.1v-1.9C92.686,351.181,92.385,354.781,93.385,355.881z"/>
<path fill="#FFFFFF" d="M211.485,351.881l3.8,6c-6,0.5-13.7-0.1-20.4,0.4c0.1-2.8-1.2-4.2-2.1-6.7
	C198.186,351.281,205.186,351.081,211.485,351.881z"/>
<path fill="#FFFFFF" d="M180.785,357.581l-9.4-0.2c-0.6-2.8-4.6-1.2-3.1-4.6c-0.2-0.6-1.3-1.2,0-1.4
	C173.985,349.581,176.385,355.981,180.785,357.581z"/>
<path fill="#FFFFFF" d="M266.385,355.881c-1,1-3.1,1.8-4.5,0.8c0-0.3-0.1-0.4-0.3-0.5
	C262.985,356.381,264.485,356.181,266.385,355.881z"/>
<path fill="#FFFFFF" d="M160.385,356.681c-0.2,0.6-0.7,1.1-0.5,1.9c0.4,0.5,0.9,0.8,1.7,0.7c0.8-1.2,2.1-0.7,3.1-0.7
	c0.6,1.5,2.4,2,3.8,1.4c-1,1.8,2.3,1.7,1.7,3.6c2.8,2.4,4.7,4.7,3.8,8.2c-1.3,0.8-0.1,2.2-1.9,2.4c0.9-3-1.1-4.9-2.1-7.5
	c-4.4-1.9-9.6-6.6-14.9-3.1c-6.6,3.7-10.9,10.1-10.8,17.3c1.2,3,0,7.5,3.8,9.1c4.2,3.4,10,2,14.4,0.3l2.7,2.1
	c-1,2.2-4.1-1.4-3.6,2.2c-1.2,0.3-3.1,1.4-3.9,0c-1.1,1.9-2.8,1.2-4.3,1.9c-1.3-2.6-6.3,0.5-5.8-3.6c-0.4-1.1-1.5-0.6-2.4-0.7
	c-1.4,1-1.6-1.4-2.8-1.9c-0.6-1.5,1.2-2.2,0.4-3.4c-1.5-1.4-3.6-3.3-3.1-5.5c1.2-0.5,0.4-1.5,0.3-2.2c-1.9-0.2-1.6-2.1-1.2-3.6
	c0.5-1.8,1.6-3.4,3.6-4.1c-0.2-2.3-0.1-4.3,1.6-6.2c1.3-2.4,5.2,0.3,4.4-3.6c1.3-0.8,2.4-3.9,4.3-1.7c2.1-0.5-0.4-4,2.6-2.9
	c0.5,1.5,1.6,1,2.7,0.8C158.585,357.181,159.485,356.081,160.385,356.681z"/>
<path fill="#FFFFFF" d="M98.385,358.581c-0.3-0.6-1.7,0.2-1.4-1C97.686,358.081,98.485,357.281,98.385,358.581z"/>
<path fill="#FFFFFF" d="M100.585,361.181c-2.1,0.3-1.1-1.1-1.7-2.4L100.585,361.181z"/>
<path fill="#FFFFFF" d="M173.785,360.981l-0.2,0.7l-2.4-1.7C172.285,359.581,172.686,360.181,173.785,360.981z"/>
<path fill="#FFFFFF" d="M181.686,359.981c0.1,2.6-2.3,4.9-3.1,7.2c0.8-3.4-4.2-3.6-2.6-6.7
	C177.686,359.981,179.785,359.481,181.686,359.981z"/>
<path fill="#FFFFFF" d="M105.385,365.981c-0.6,0.4-1.5-0.5-1.9-0.9l-0.5-2.7C104.385,362.781,104.585,364.781,105.385,365.981z"/>
<path fill="#FFFFFF" d="M175.985,367.481c-1.1-0.3-1.1-1.3-1-2.2C176.385,364.881,176.385,366.681,175.985,367.481z"/>
<path fill="#FFFFFF" d="M167.585,369.881c-0.5,1.7,0.9,3.8-0.3,5.5c-0.3-3.2-3.8-2.7-5.7-4.1c-3.1-0.7-5.8,1.8-7.5,4.1
	c-1.5,2.4-2.8,5.2-1.9,8.4c0.6,2.5,2.6,3.9,4.3,5.7l0.3-0.2l-0.5,0.5l-0.5-0.5c0.1-0.1,0.3-0.3,0.2-0.5c-1.9-0.2-5.1,0.5-6-1.9
	c-1.6-0.5-1.7-2.4-2.6-3.6c-1-4.6,1.2-9.7,5-13.2c3.5-3,6.4-4.4,11.1-3.1C164.785,367.881,166.785,367.981,167.585,369.881z"/>
<path fill="#FFFFFF" d="M110.385,368.381l0.8,3.1c-1.3,0.2-2.4-1.9-3.2-3.1l-0.2-0.9
	C108.686,367.781,109.885,367.681,110.385,368.381z"/>
<path fill="#FFFFFF" d="M161.985,373.681c-1.3-0.6-3.7,1.1-5,2.4c-2.2,2.1-2.1,4.5-1.7,7.4c0.6,0.7,0.9,1.5,1,2.4
	c-1.6-0.7-1.8-2.5-2.2-4c0.1-3.8,3-7.2,6-8.7C160.885,372.981,161.285,373.781,161.985,373.681z"/>
<path fill="#FFFFFF" d="M131.785,386.381c-1,0.7-1.8-0.2-2.6-0.5l-0.3-1.4C130.285,383.781,130.485,386.081,131.785,386.381z"/>
<path fill="#FFFFFF" d="M137.585,390.281c-1.1-0.1-3.2-1.1-3.6-2.7c0.5-0.2,1.3,0.4,1.9,0.7
	C136.186,389.081,136.985,389.581,137.585,390.281z"/>
</svg>
